if (_typeface_js && _typeface_js.loadFace) _typeface_js.loadFace({"glyphs":{"S":{"x_min":117,"x_max":1300.796875,"ha":1151,"o":"m 1300 1082 q 1164 1002 1262 1034 q 1001 960 1048 973 q 771 902 885 931 q 541 816 635 863 q 357 670 425 756 q 541 603 446 627 q 731 579 636 579 q 986 517 865 566 q 1147 359 1147 452 q 1134 304 1147 332 q 1091 243 1121 276 q 757 43 967 109 q 372 -14 578 -14 l 352 -14 q 185 57 254 -14 q 117 219 117 129 q 131 291 117 259 q 178 350 145 322 q 225 126 178 196 q 342 60 266 66 q 660 107 503 60 q 941 243 817 154 q 1000 300 982 273 q 1019 352 1019 326 q 891 474 1019 423 q 686 518 784 518 q 456 540 477 537 q 327 579 384 552 q 268 619 286 598 q 250 666 250 641 q 305 756 250 709 q 417 823 352 795 q 571 892 458 839 q 846 992 742 971 q 1029 1038 949 1013 q 1210 1113 1134 1070 q 1259 1093 1225 1100 q 1300 1082 1292 1085 "},"/":{"x_min":23,"x_max":1036,"ha":1032,"o":"m 1031 1052 q 1036 1029 1036 1039 q 999 950 1036 995 q 942 884 970 917 q 824 714 891 809 q 702 548 741 602 q 539 328 567 365 q 357 120 449 213 q 254 0 296 58 q 178 -135 202 -70 q 129 -216 155 -199 q 28 -242 108 -229 q 23 -190 23 -216 q 48 -101 23 -144 q 118 -13 65 -74 q 239 117 198 73 q 358 258 315 201 q 513 458 401 316 q 668 659 613 584 q 807 868 751 771 q 872 1007 849 963 q 972 1113 914 1088 q 1004 1089 978 1118 q 1031 1052 1026 1064 "},"K":{"x_min":118.359375,"x_max":960,"ha":838,"o":"m 957 914 q 804 749 928 844 q 612 624 721 687 q 491 552 517 571 q 419 456 419 501 q 432 417 419 435 q 477 380 446 398 q 762 212 619 295 q 811 156 800 188 q 822 73 822 124 l 822 29 q 708 78 756 29 q 612 181 659 128 q 473 276 559 230 q 312 334 378 326 q 283 44 283 198 q 184 66 202 58 q 118 135 146 83 q 203 227 176 169 q 253 349 231 303 l 223 380 q 211 379 214 387 q 208 349 208 371 q 179 405 198 374 q 166 441 166 427 q 172 467 166 452 q 193 503 178 481 q 225 546 209 524 q 235 569 235 560 q 232 587 235 577 q 223 623 225 614 q 221 645 221 631 q 253 739 221 663 q 268 807 268 776 l 268 823 q 263 871 266 837 q 260 906 260 905 q 270 948 260 932 q 312 975 280 963 q 330 903 325 941 q 336 826 336 866 q 336 733 336 798 q 336 663 336 669 q 342 563 336 610 q 463 635 391 584 q 582 716 551 698 q 762 855 674 767 q 912 1037 838 931 q 925 1044 921 1044 q 951 1009 942 1044 q 960 938 960 974 q 957 914 960 923 "},"7":{"x_min":133,"x_max":1138,"ha":1137,"o":"m 237 487 q 160 507 187 487 q 133 555 133 527 q 215 613 133 613 q 253 607 232 613 q 309 601 275 601 q 373 601 342 601 q 607 627 466 601 q 746 654 677 640 q 905 730 844 701 q 1002 760 966 760 q 1046 746 1028 760 q 1075 689 1075 722 q 1039 598 1075 653 q 986 517 1012 557 q 906 382 932 427 q 836 242 855 299 q 902 248 858 239 q 1045 269 1020 269 q 1108 256 1084 269 q 1135 224 1132 243 q 1138 193 1138 205 q 1125 158 1138 168 q 1087 148 1112 148 q 1042 153 1069 148 q 971 166 979 166 q 735 23 799 166 q 671 -273 712 -28 q 597 -259 633 -266 q 537 -228 553 -248 q 522 -195 522 -208 q 527 -179 522 -186 q 552 -151 539 -165 q 618 -15 594 -79 q 642 105 642 48 q 504 58 557 76 q 418 40 451 40 q 366 50 387 40 q 328 88 345 60 q 311 138 311 116 q 337 173 311 163 q 409 183 364 183 q 462 183 438 183 q 507 183 485 183 q 535 183 520 183 q 566 183 550 183 q 659 195 625 183 q 731 260 708 213 q 820 439 789 371 q 896 624 866 538 q 684 590 801 624 q 447 521 567 556 q 237 487 328 487 "},"d":{"x_min":27,"x_max":927,"ha":807,"o":"m 642 472 l 642 502 l 657 518 l 657 532 q 807 945 732 738 q 822 998 819 993 q 861 1025 834 1025 q 882 1022 865 1025 q 916 1003 906 1015 q 927 976 927 991 q 911 926 927 956 q 882 869 895 895 q 793 651 852 790 q 704 435 734 513 q 627 211 654 304 q 688 208 662 211 q 714 189 714 205 q 702 166 714 182 q 659 126 670 137 q 629 78 642 106 q 597 42 616 51 q 549 33 578 33 q 485 38 530 33 q 419 44 440 44 l 402 44 q 332 39 374 39 q 254 39 291 39 q 159 43 198 39 q 88 62 120 48 q 41 100 55 77 q 27 154 27 123 q 56 258 27 199 q 118 349 81 306 q 274 472 180 426 q 463 519 367 519 q 492 518 483 519 q 561 494 525 518 q 627 456 610 462 l 642 472 m 148 273 q 114 196 114 230 q 183 130 114 151 q 322 115 235 115 q 387 115 368 115 q 417 121 409 121 q 510 183 474 129 q 547 301 547 237 q 521 388 547 356 q 432 426 491 426 q 279 378 367 426 q 148 273 191 330 "},",":{"x_min":117.953125,"x_max":392,"ha":403,"o":"m 387 105 q 392 59 392 84 q 319 -176 392 -55 q 146 -308 240 -308 q 117 -303 132 -308 q 282 -29 199 -166 q 284 -6 284 -20 q 240 83 284 33 q 192 166 196 133 q 221 229 188 205 q 282 258 239 243 q 342 197 299 270 q 387 105 382 130 "},"Y":{"x_min":114,"x_max":1136.609375,"ha":852,"o":"m 238 -151 l 238 -120 l 253 -105 q 266 -41 255 -78 q 283 14 277 -3 q 348 198 328 137 q 388 395 388 311 q 322 626 388 501 q 208 838 265 731 q 138 942 163 901 q 114 1013 114 984 q 124 1046 114 1034 q 163 1067 134 1059 q 278 953 214 1082 q 358 762 288 934 q 385 708 367 738 q 417 655 402 679 q 466 618 443 618 q 491 627 476 618 q 537 655 506 636 q 703 780 618 704 q 852 930 778 846 q 951 1070 914 1021 q 1072 1162 1020 1162 q 1104 1154 1090 1162 q 1136 1128 1118 1146 q 867 838 1005 980 q 747 729 845 816 q 567 518 615 611 q 510 348 539 459 q 462 166 472 196 q 412 -41 437 62 q 253 -166 375 -138 l 238 -151 "},"E":{"x_min":120,"x_max":1271.921875,"ha":898,"o":"m 852 13 q 806 8 832 8 q 745 11 784 8 q 698 15 707 15 q 655 11 681 15 q 585 7 629 7 q 501 7 542 7 q 357 17 423 7 q 245 48 291 27 q 148 122 186 74 q 120 194 120 159 q 151 280 120 230 q 206 362 180 321 q 244 423 233 403 q 269 490 266 459 q 276 556 272 521 q 328 593 283 577 q 452 693 398 620 q 521 834 500 757 q 613 955 543 911 q 867 1023 694 1007 q 898 1023 885 1023 q 920 1023 911 1023 q 1141 992 1009 1023 q 1271 960 1206 975 q 1190 937 1233 944 q 1096 931 1146 931 q 1003 931 1066 931 q 909 931 941 931 q 878 931 890 931 q 837 929 866 931 q 641 808 731 914 q 508 608 604 765 q 668 586 611 595 q 792 532 775 570 q 551 486 727 504 q 253 257 312 461 q 247 212 247 230 q 372 84 247 123 q 583 60 453 60 q 675 68 609 60 q 777 76 742 76 q 852 66 824 76 q 897 29 879 56 l 852 13 "},"y":{"x_min":-73.5625,"x_max":840,"ha":762,"o":"m 822 669 q 840 629 840 653 q 801 543 840 596 q 747 471 774 507 q 677 374 722 431 q 552 211 558 220 q 480 120 515 166 q 464 68 464 95 q 477 13 464 45 q 282 -136 375 -15 q 148 -350 246 -184 q 58 -502 103 -426 q 12 -546 38 -546 q -24 -531 0 -546 q -73 -502 -49 -516 q -10 -407 -53 -459 q 118 -243 109 -257 q 218 -127 184 -171 q 253 -59 253 -84 q 220 -3 257 -12 q 148 -3 183 -3 q 44 108 77 17 q 19 301 19 181 q 27 449 19 375 q 43 563 31 492 q 116 522 95 563 q 133 422 133 489 q 133 337 133 403 q 133 238 133 271 q 162 102 133 145 q 299 44 201 44 q 442 163 361 44 q 507 272 468 200 q 634 500 608 458 q 792 700 714 629 l 822 669 "},"\"":{"x_min":342.359375,"x_max":779,"ha":733,"o":"m 358 716 l 343 732 q 359 798 338 747 q 387 869 372 833 q 428 963 407 924 q 506 1033 468 1033 q 530 1026 518 1033 q 553 1005 541 1020 q 565 970 565 990 q 545 913 565 945 q 507 854 525 881 q 464 750 486 801 q 358 701 434 701 l 358 716 m 747 1037 q 772 1015 765 1028 q 779 984 779 1002 q 773 949 779 967 q 764 919 768 931 q 710 805 759 906 q 687 732 691 765 q 619 753 641 732 q 598 809 598 775 q 644 947 598 867 q 732 1052 686 1020 l 747 1037 "},"g":{"x_min":-208,"x_max":721,"ha":717,"o":"m -178 -441 l -163 -456 q -125 -475 -148 -458 q -88 -501 -91 -500 q -4 -550 -31 -535 q 88 -578 47 -578 q 122 -580 100 -580 q 423 -421 298 -580 q 554 -89 533 -280 q 554 -48 554 -70 q 554 -23 554 -27 q 552 30 554 11 q 537 60 550 48 q 499 75 521 75 q 457 67 486 75 q 418 60 429 60 q 218 72 284 60 q 58 167 90 96 q 49 218 49 190 q 142 413 49 307 q 312 548 227 509 q 423 585 359 569 q 541 601 488 601 q 667 567 623 601 q 721 445 721 528 q 716 399 721 423 q 691 330 712 375 q 670 258 670 286 q 670 161 670 188 q 656 83 670 135 q 642 -113 642 30 q 633 -227 642 -177 q 455 -531 602 -404 q 132 -659 308 -659 q 74 -654 103 -659 q -133 -578 -31 -639 q -208 -497 -208 -535 q -193 -441 -208 -478 l -178 -441 m 268 411 q 192 332 223 376 q 157 240 157 282 q 176 188 157 211 q 246 149 195 165 q 365 134 298 134 q 443 141 409 134 q 507 167 477 149 q 546 214 546 192 q 539 240 546 221 q 532 275 532 260 q 537 304 532 289 q 597 404 575 365 q 619 465 619 443 q 596 504 619 490 q 522 518 574 518 q 388 484 461 518 q 268 411 329 458 "},"–":{"x_min":59,"x_max":764,"ha":763,"o":"m 59 334 l 74 350 q 103 429 74 405 q 223 436 112 436 q 343 441 333 436 q 597 472 470 456 q 700 486 648 479 q 746 473 729 486 q 764 429 764 461 q 762 411 764 418 q 745 357 757 372 q 712 343 734 343 q 633 368 697 343 q 583 381 602 381 q 309 332 517 381 q 150 310 214 310 q 105 311 120 310 q 59 319 90 312 l 59 334 "},"e":{"x_min":27,"x_max":776.625,"ha":777,"o":"m 641 533 q 694 480 675 513 q 714 410 714 447 q 671 319 714 353 q 552 253 614 273 q 422 233 490 233 q 339 239 383 233 q 252 258 294 246 q 225 270 236 262 q 211 279 214 279 q 177 258 203 279 q 133 180 133 224 q 207 90 133 115 q 327 73 260 73 q 422 80 367 73 q 517 93 478 87 q 639 100 556 100 q 776 100 723 100 q 563 24 724 43 q 417 10 489 17 q 355 8 391 8 q 296 8 319 8 q 115 35 180 8 q 27 161 27 72 q 30 202 27 175 q 66 280 33 230 q 133 365 78 299 q 305 492 196 441 q 507 563 375 524 q 545 552 511 558 q 641 533 629 540 m 596 426 q 568 443 592 431 q 530 458 543 455 q 497 461 516 461 q 388 428 448 461 q 327 395 357 412 q 455 319 375 319 q 611 410 548 319 l 596 426 "},"J":{"x_min":118,"x_max":1224.3125,"ha":911,"o":"m 1210 1158 q 1224 1122 1224 1140 q 1203 1076 1224 1099 q 1149 1036 1182 1053 q 1104 1019 1116 1019 q 1076 1038 1094 1019 q 1045 1067 1058 1058 q 999 1084 1018 1084 q 964 1067 979 1084 q 940 1021 950 1051 q 871 742 908 917 q 812 460 841 601 q 731 185 776 302 q 651 33 687 69 q 564 -3 614 -3 q 536 0 555 -3 q 262 124 387 24 q 118 380 118 240 l 147 410 q 158 402 154 412 q 177 395 162 392 q 226 256 210 284 q 296 183 249 219 q 391 127 342 147 q 486 107 440 107 q 583 136 540 107 q 656 227 626 165 q 723 415 701 320 q 746 609 746 509 q 759 766 746 673 q 775 868 767 817 q 793 925 777 882 q 805 991 810 968 q 732 1045 796 1045 q 587 1006 678 1045 q 517 973 535 981 q 475 957 500 966 q 429 948 451 948 q 374 972 392 948 q 356 1017 356 996 q 388 1067 356 1045 q 447 1098 398 1074 q 462 1117 462 1106 q 477 1128 462 1128 l 507 1128 l 507 1113 l 521 1098 l 536 1098 l 551 1113 l 566 1113 q 642 1117 603 1113 q 731 1128 702 1125 q 984 1158 951 1152 q 1135 1189 1044 1168 q 1171 1176 1160 1180 q 1210 1158 1207 1162 "},"|":{"x_min":117,"x_max":490,"ha":493,"o":"m 477 975 q 490 935 490 964 q 485 894 490 916 q 477 853 481 873 q 446 714 469 792 q 402 563 423 635 q 297 197 349 380 q 291 94 291 184 q 252 -29 291 4 q 217 -50 232 -50 q 185 -22 201 -50 q 163 14 170 5 l 133 14 q 117 57 117 36 q 141 105 117 77 q 178 151 172 141 q 267 387 217 226 q 311 529 299 490 q 349 721 323 569 q 462 991 387 955 l 477 975 "},"^":{"x_min":110.03125,"x_max":874,"ha":882,"o":"m 687 808 q 540 699 621 784 q 402 563 428 583 q 307 451 384 550 q 202 378 250 378 q 148 396 178 378 q 110 446 110 419 q 190 530 110 482 q 297 594 243 562 q 687 930 492 762 q 744 994 715 962 q 814 1033 786 1033 q 843 1017 831 1033 q 859 960 855 1001 q 874 715 874 837 q 874 472 874 593 q 853 398 874 432 q 806 364 832 364 q 762 396 781 364 q 748 447 748 418 q 752 484 748 464 q 762 548 762 534 q 753 706 762 644 q 717 838 745 769 l 687 808 "},"q":{"x_min":-33,"x_max":947,"ha":957,"o":"m 462 74 q 432 93 451 93 q 398 84 420 93 q 371 74 376 75 q 351 73 365 73 q 279 81 323 73 q 222 89 236 89 q 105 108 127 99 q 43 196 49 130 q 106 341 43 266 q 222 441 153 395 q 454 574 346 521 q 701 670 584 639 q 801 684 756 684 q 947 541 947 684 q 926 425 947 491 q 745 162 884 289 q 492 -60 618 50 q 446 -108 469 -82 q 419 -160 423 -135 q 415 -196 415 -186 q 424 -266 415 -226 q 447 -380 447 -364 q 406 -547 447 -473 q 282 -655 361 -627 q 192 -681 243 -670 q 93 -693 141 -693 q 3 -674 33 -693 q -33 -601 -33 -652 q -28 -563 -33 -584 q 56 -411 -13 -490 q 186 -276 120 -343 q 267 -121 255 -196 q 218 -117 236 -117 q 178 -121 205 -117 q 191 -36 178 -61 q 236 -11 205 -11 q 312 -29 262 -11 l 327 -44 q 351 -49 339 -49 q 423 -12 388 -49 q 477 59 443 8 l 462 74 m 342 425 q 215 334 279 401 q 151 217 151 267 q 178 169 151 187 q 268 151 206 151 q 496 170 402 151 q 702 257 613 195 q 793 361 748 291 q 844 496 844 440 q 817 555 844 533 q 732 578 790 578 q 534 522 644 578 q 342 425 437 474 m 297 -273 q 252 -304 274 -289 q 142 -432 175 -389 q 58 -579 81 -511 q 164 -607 113 -607 q 295 -525 248 -607 q 338 -341 338 -451 q 327 -243 338 -294 q 309 -262 317 -253 q 297 -273 306 -265 "},"b":{"x_min":29,"x_max":972.40625,"ha":898,"o":"m 283 273 q 240 185 256 227 q 220 94 220 133 q 236 42 220 60 q 292 24 252 24 q 328 28 308 24 q 585 127 454 53 q 792 303 735 209 q 815 372 815 341 q 758 447 815 423 q 628 472 701 472 q 429 417 523 472 q 283 273 335 363 m 29 59 q 59 119 29 85 q 104 166 80 142 q 262 358 164 242 q 358 472 347 459 q 526 670 441 570 q 675 891 621 788 q 785 1103 728 993 q 972 1220 862 1220 q 845 991 950 1122 q 747 868 796 929 q 634 723 690 795 q 553 563 568 631 q 771 519 662 541 q 903 377 903 476 q 882 288 903 341 q 659 91 841 187 q 373 -29 572 45 q 329 -41 353 -37 q 288 -46 305 -46 q 196 -27 245 -46 q 29 28 50 24 l 29 59 "},"D":{"x_min":-86,"x_max":1075,"ha":1076,"o":"m -14 74 q -7 31 -11 51 q 32 -1 -3 11 q 122 -14 69 -14 q 270 5 188 -14 q 402 44 312 15 q 776 219 639 122 q 941 395 888 298 q 972 454 956 424 q 997 541 997 501 q 986 609 997 567 q 901 740 967 674 q 776 838 852 788 q 548 963 647 920 q 297 1022 412 1022 q 164 1034 210 1022 q 119 1071 119 1046 q 125 1090 119 1081 q 149 1114 131 1099 q 209 1130 168 1130 q 320 1110 252 1130 q 417 1082 368 1096 q 849 894 657 1034 q 1075 531 1075 728 q 1053 411 1075 472 q 986 288 1032 351 q 833 156 934 220 q 642 60 753 106 q 476 -5 530 13 q 293 -60 376 -41 q 119 -79 209 -79 q 37 -74 82 -79 q -46 -37 -7 -69 q -86 31 -86 -5 q -68 73 -86 54 q -14 105 -50 93 l -14 74 m 702 808 l 702 777 q 636 616 708 731 q 582 533 618 588 q 504 426 531 465 q 432 304 454 355 q 402 219 417 261 q 349 168 380 168 q 311 183 331 168 q 291 222 291 198 q 327 298 291 251 q 432 426 379 362 q 538 652 485 538 q 687 823 612 791 l 702 808 "},"Ł":{"x_min":0,"x_max":0,"ha":0},"z":{"x_min":39,"x_max":868,"ha":867,"o":"m 627 578 q 606 582 619 581 q 579 584 593 584 q 508 578 553 584 q 383 566 408 566 q 311 579 334 566 q 283 639 283 598 q 297 686 283 671 q 336 701 311 701 q 400 688 360 701 q 514 653 504 653 q 538 653 525 653 q 560 653 551 653 q 648 657 597 653 q 791 669 764 669 q 850 655 832 669 q 868 618 868 642 q 850 566 868 595 q 806 517 832 538 q 642 381 751 471 q 476 246 570 321 q 312 120 383 171 q 424 109 352 109 q 511 109 470 109 q 665 109 653 109 q 787 95 737 109 q 866 43 838 81 q 647 27 806 27 q 432 13 488 27 q 325 -2 360 2 q 223 -29 259 -11 q 197 -54 214 -33 q 163 -75 180 -75 l 133 -75 l 133 -60 l 118 -45 l 103 -45 l 88 -60 l 73 -60 l 58 -75 l 43 -60 q 39 -21 39 -39 q 120 105 39 50 q 283 211 202 160 q 420 315 310 234 q 557 427 510 382 q 672 563 629 493 l 627 578 "},"w":{"x_min":43.0625,"x_max":1354,"ha":1346,"o":"m 671 380 l 686 380 q 713 356 706 370 q 721 324 721 342 q 719 306 721 316 q 715 282 718 296 q 694 219 712 267 q 676 148 676 170 q 688 107 676 124 q 731 74 700 90 q 832 54 774 54 q 951 72 881 54 q 1061 105 982 80 q 1228 224 1171 141 q 1286 426 1286 306 q 1280 477 1286 458 q 1256 518 1275 495 l 1226 548 l 1211 548 l 1196 564 l 1181 564 l 1166 579 l 1181 594 q 1179 601 1177 599 q 1186 604 1181 604 q 1216 597 1194 604 q 1226 594 1219 597 q 1271 572 1250 591 q 1300 533 1283 559 q 1354 338 1354 447 q 1322 196 1354 258 q 1226 105 1291 134 q 1029 22 1096 45 q 803 -25 897 -25 q 680 -1 735 -25 q 582 75 624 22 l 582 105 q 549 118 565 118 q 498 101 529 118 q 447 75 453 76 q 320 24 386 49 q 208 0 253 0 q 107 15 144 0 q 43 90 53 37 q 115 238 35 144 q 238 380 177 309 q 292 470 265 424 q 370 532 335 532 q 403 518 388 532 q 429 465 429 497 q 366 346 429 420 q 311 286 325 302 q 226 199 298 270 q 148 105 177 151 q 194 80 186 83 q 233 74 213 74 l 268 74 q 345 98 303 80 q 403 120 388 115 q 485 159 451 140 q 551 211 533 185 q 592 278 569 237 q 656 395 624 337 l 671 380 "},"$":{"x_min":118,"x_max":1241.265625,"ha":1241,"o":"m 282 181 q 296 190 290 187 q 305 198 301 194 q 292 201 292 196 q 297 212 292 205 q 523 534 414 371 q 732 869 639 707 q 802 1002 767 935 q 910 1102 864 1102 q 926 1097 918 1102 q 959 1056 959 1083 q 928 988 959 1029 q 881 930 904 959 q 801 826 825 859 q 747 716 759 767 q 839 731 817 724 q 926 792 891 748 q 1057 963 991 877 q 1241 1067 1141 1056 q 1169 941 1223 1009 q 1076 823 1085 838 q 1146 723 1146 773 q 1055 656 1146 665 q 926 633 964 647 q 864 570 864 610 q 871 539 864 555 q 896 502 878 523 q 931 442 919 474 q 943 377 943 411 q 896 238 943 305 q 777 136 849 170 q 402 -44 589 45 q 373 18 390 -1 q 312 59 356 38 q 268 -23 268 -22 q 193 -75 232 -75 q 158 -64 168 -75 q 148 -37 148 -54 q 154 -2 148 -25 q 163 28 160 19 q 179 56 165 38 q 193 85 193 74 q 142 196 193 110 q 118 273 118 238 q 207 426 118 387 q 197 323 197 362 q 252 150 197 242 l 282 181 m 836 686 l 821 686 q 791 684 808 691 q 761 670 775 677 q 698 622 723 655 q 657 548 672 590 q 690 535 672 544 q 719 526 708 526 q 747 532 733 526 q 810 594 779 548 q 851 670 835 630 l 836 686 m 627 518 q 591 497 605 518 q 567 456 578 476 q 487 348 495 358 q 432 288 461 316 q 370 237 391 256 q 328 166 328 199 q 343 121 330 134 q 375 108 356 108 q 432 127 401 108 q 477 166 462 146 q 586 315 553 269 q 687 472 650 405 q 670 491 678 481 q 627 518 640 518 m 761 426 q 636 287 706 398 q 537 120 586 203 q 563 119 547 119 q 674 155 613 119 q 791 227 734 191 q 849 274 831 249 q 868 326 868 298 q 848 387 868 355 q 791 456 828 419 l 761 426 "},"\\":{"x_min":127,"x_max":789,"ha":793,"o":"m 343 808 q 408 703 372 758 q 523 533 466 617 q 618 373 571 452 q 733 227 675 283 q 774 167 759 202 q 789 97 789 132 q 763 17 789 51 q 688 -29 738 -16 q 628 112 671 26 q 553 258 590 184 q 479 386 526 316 q 343 594 355 572 q 283 687 317 642 q 163 823 278 694 q 127 896 127 864 q 208 976 127 941 q 304 884 255 976 q 343 808 323 845 "},"’":{"x_min":343,"x_max":568,"ha":523,"o":"m 463 1083 q 448 1159 463 1126 q 386 1238 439 1179 q 343 1327 343 1287 q 358 1374 343 1358 q 398 1390 374 1390 q 463 1358 435 1390 q 481 1315 471 1346 q 493 1281 491 1284 q 552 1201 536 1227 q 568 1144 568 1176 q 529 1056 568 1086 q 433 1022 491 1027 q 446 1042 439 1031 q 463 1083 463 1074 "},"~":{"x_min":132,"x_max":1002.390625,"ha":1002,"o":"m 627 441 q 679 376 643 399 q 762 354 715 354 q 822 365 789 354 q 913 450 877 417 q 969 483 948 483 q 1001 425 996 483 q 913 304 1009 352 q 714 261 826 261 q 625 271 662 261 q 567 304 587 281 q 543 364 556 318 q 510 423 529 410 q 472 437 491 437 q 431 427 455 437 q 387 410 394 412 q 265 352 311 373 q 193 332 219 332 q 133 395 142 332 q 132 413 132 402 q 150 451 132 445 q 186 457 168 457 q 238 457 212 457 q 336 484 281 462 q 492 548 491 548 q 544 557 525 557 q 596 525 579 557 q 627 441 597 523 "},"-":{"x_min":178,"x_max":883,"ha":882,"o":"m 178 334 l 193 350 q 222 429 193 405 q 342 436 231 436 q 462 441 454 436 q 716 472 589 456 q 819 486 767 479 q 865 473 848 486 q 883 429 883 461 q 881 411 883 418 q 864 357 876 372 q 831 343 853 343 q 752 368 816 343 q 701 381 721 381 q 428 332 636 381 q 269 310 333 310 q 224 311 239 310 q 178 319 209 312 l 178 334 "},"Q":{"x_min":121,"x_max":1207,"ha":1136,"o":"m 792 -349 q 777 -329 781 -332 q 773 -327 774 -327 q 777 -334 773 -328 q 785 -341 782 -341 q 792 -318 792 -341 q 797 -289 792 -310 q 805 -263 798 -286 q 830 -193 812 -240 q 852 -117 849 -146 q 856 -52 856 -88 q 848 36 856 0 q 819 107 841 74 q 774 141 798 141 q 734 129 758 141 q 687 106 710 117 q 521 39 560 53 q 329 -1 405 -1 q 225 19 270 -1 q 150 88 179 40 q 121 190 121 136 q 183 367 121 269 q 322 532 235 447 q 462 655 372 582 q 722 837 605 772 q 1017 946 869 919 q 1060 953 1023 947 q 1103 960 1097 960 q 1146 949 1126 960 q 1180 915 1166 939 q 1200 863 1194 891 q 1207 804 1207 835 q 1205 766 1207 780 q 1196 701 1204 753 q 1110 472 1177 591 q 972 273 1057 377 q 935 232 952 253 q 925 197 925 218 q 927 167 925 179 q 942 86 927 138 q 957 0 957 35 q 927 -213 957 -127 q 792 -364 886 -331 l 792 -349 m 1062 869 l 1062 854 l 1047 839 l 1047 824 l 987 824 q 911 810 948 819 q 837 793 874 801 q 527 633 690 758 q 283 365 365 507 q 243 282 258 324 q 229 203 229 240 q 254 129 229 158 q 343 90 280 100 q 367 88 356 88 q 384 88 377 88 q 571 129 465 88 q 747 212 609 145 q 617 335 660 291 q 582 411 575 379 q 602 454 589 441 q 635 467 615 467 q 676 455 656 467 q 716 428 696 444 q 771 368 736 411 q 856 307 823 307 q 897 319 873 307 q 1006 437 954 354 q 1076 579 1042 497 q 1121 683 1098 630 q 1146 786 1146 746 q 1130 844 1146 819 q 1076 885 1114 868 l 1062 869 "},"M":{"x_min":118,"x_max":1557,"ha":1420,"o":"m 806 472 q 844 490 817 469 q 881 517 862 503 q 949 574 910 534 q 1016 640 1002 627 q 1149 772 1083 701 q 1281 915 1216 844 q 1419 1052 1360 999 q 1457 1080 1439 1070 q 1494 1090 1475 1090 q 1537 1069 1517 1090 q 1557 1023 1557 1048 q 1531 949 1557 994 q 1494 884 1495 888 q 1414 671 1461 790 q 1271 319 1279 341 q 1227 199 1243 246 q 1196 77 1204 130 q 1151 6 1188 24 q 1061 -13 1130 -2 q 1056 36 1056 8 q 1098 195 1056 102 q 1166 349 1162 337 q 1265 583 1177 385 q 1331 823 1331 728 q 1207 719 1277 796 q 1091 594 1100 603 q 986 506 1045 552 q 881 426 915 452 q 842 377 863 412 q 806 334 820 342 q 729 308 764 308 q 657 410 657 308 q 650 611 657 551 q 627 731 643 671 q 529 559 580 663 q 446 378 503 508 q 357 197 395 267 q 265 55 300 90 q 118 0 209 0 q 180 160 126 66 q 267 319 255 289 q 402 594 334 456 q 466 760 454 740 q 533 821 495 808 q 580 844 572 835 q 596 894 587 852 q 616 951 605 935 q 657 991 621 959 q 761 752 742 913 q 791 472 776 612 l 806 472 "},"C":{"x_min":133,"x_max":1121.640625,"ha":1122,"o":"m 1061 75 q 967 47 1029 66 q 911 28 939 37 q 741 -3 837 11 q 554 -18 644 -18 q 263 44 369 -18 q 133 288 133 121 q 168 449 133 366 q 254 599 198 520 q 357 731 285 643 q 622 975 498 901 q 829 1038 728 1038 q 866 1036 854 1038 q 993 975 956 1025 q 1025 856 1025 932 q 1016 758 1025 811 q 1001 655 1008 704 q 923 678 944 664 q 903 716 903 692 q 918 789 903 722 q 927 853 927 825 q 896 921 921 901 q 828 942 870 942 q 790 939 805 942 q 746 929 776 937 q 434 704 591 883 q 237 364 285 534 q 224 277 224 318 q 333 95 224 159 q 570 40 428 40 q 642 44 606 40 q 927 75 783 59 q 977 90 948 77 q 1061 121 1044 118 q 1091 128 1079 125 q 1105 131 1102 131 q 1113 115 1109 131 q 1121 90 1117 100 l 1061 75 "},"[":{"x_min":124,"x_max":882.03125,"ha":972,"o":"m 882 1021 q 730 889 864 917 q 597 869 638 877 q 428 834 442 837 q 322 807 385 824 q 270 778 280 796 q 260 719 260 759 q 260 688 260 699 l 260 670 q 260 433 260 599 q 260 212 260 267 q 260 183 260 196 q 260 159 260 170 q 273 110 260 123 q 331 97 286 97 q 519 97 390 97 q 687 97 647 97 q 724 97 705 101 q 762 75 736 91 l 777 75 l 762 13 q 732 -12 750 -4 q 699 -21 715 -21 q 651 -11 684 -21 q 605 1 617 -1 q 571 5 593 5 q 521 5 549 5 q 343 -7 479 5 q 238 -14 274 -14 q 146 -2 168 -14 q 124 45 124 8 q 125 73 124 56 q 133 120 127 90 q 164 360 151 234 q 178 594 178 485 q 153 720 178 620 q 141 795 141 770 q 158 849 141 830 q 223 869 176 869 q 439 893 333 869 q 650 959 545 917 q 852 1052 718 986 l 882 1021 "},"L":{"x_min":127,"x_max":1006,"ha":1002,"o":"m 1002 59 q 978 37 995 47 q 927 13 970 31 l 912 0 q 893 -2 898 -2 q 826 17 878 -2 q 778 29 798 29 q 628 36 696 36 q 481 27 553 36 q 343 0 410 19 q 291 -11 324 -5 q 227 -17 257 -17 q 155 -4 184 -17 q 127 35 127 8 q 148 90 127 58 q 240 219 165 113 q 388 456 347 369 q 513 716 451 585 q 613 975 581 863 q 645 1064 630 1035 q 707 1120 674 1120 q 750 1095 726 1120 q 774 1038 774 1071 q 754 971 774 1009 q 718 899 735 934 q 493 456 605 677 q 328 136 410 295 q 439 127 376 130 q 556 125 502 125 q 781 125 632 125 q 1002 125 931 125 q 1004 115 1002 131 q 1006 91 1006 99 q 1002 59 1006 67 "},"!":{"x_min":229,"x_max":777.484375,"ha":777,"o":"m 433 501 q 463 580 438 529 q 493 654 487 632 q 597 1005 544 829 q 636 1108 612 1077 q 706 1139 660 1139 q 777 1127 731 1139 q 683 932 735 1050 q 602 730 641 836 q 591 552 591 698 q 476 406 591 406 q 432 410 457 406 q 432 428 432 412 q 432 461 432 444 q 433 501 432 496 m 403 74 q 361 39 391 53 q 301 26 331 26 q 240 54 252 26 q 229 102 229 82 q 256 148 229 134 q 327 162 284 162 q 376 158 351 162 q 418 150 402 155 q 414 123 415 137 q 403 74 407 81 "}," ":{"x_min":0,"x_max":0,"ha":672},"{":{"x_min":132,"x_max":942,"ha":957,"o":"m 792 1327 q 661 1207 781 1266 q 475 1111 495 1127 q 411 1043 456 1095 q 358 960 358 982 q 457 881 358 898 q 537 869 496 874 q 613 826 578 859 q 648 756 648 794 q 642 731 648 742 q 549 655 627 696 q 432 594 491 624 q 504 524 475 570 q 537 472 533 477 q 313 227 424 349 q 274 173 274 198 q 324 119 274 144 q 419 88 364 98 q 541 78 473 78 q 687 78 609 78 q 748 78 716 78 q 812 78 780 78 q 894 68 863 78 q 942 29 925 59 q 636 3 797 3 q 521 3 582 3 q 402 10 459 3 q 241 37 322 23 q 133 151 148 65 q 132 168 132 157 q 181 270 132 216 q 283 361 232 315 q 358 454 344 416 q 310 454 341 454 q 278 454 279 454 q 213 463 238 454 q 177 501 188 473 q 167 551 167 529 q 222 624 167 602 q 360 678 349 673 q 462 777 434 716 q 324 834 358 813 q 250 939 250 877 q 267 1006 250 970 q 412 1174 315 1100 q 747 1342 529 1264 q 792 1327 767 1329 "},"X":{"x_min":117,"x_max":1061,"ha":971,"o":"m 717 44 q 691 119 699 96 q 641 244 664 197 q 596 341 619 291 q 522 411 557 411 q 410 324 486 411 q 312 212 361 267 q 218 102 258 144 q 155 60 178 60 q 118 120 126 60 q 117 150 117 130 q 131 195 117 180 q 157 211 146 211 q 176 209 169 209 q 194 214 182 209 q 222 238 206 219 q 252 273 237 256 q 349 354 256 277 q 461 520 461 447 q 447 578 461 549 q 267 823 382 719 q 231 903 231 856 q 248 957 231 935 q 293 980 266 980 q 358 943 324 980 q 435 831 391 907 q 507 701 470 766 q 553 631 537 649 q 598 608 575 608 q 687 655 631 608 q 805 770 734 694 q 866 838 849 820 q 922 907 892 866 q 971 975 946 941 q 1017 1003 993 1003 q 1061 930 1061 1003 q 965 791 1061 867 q 821 685 893 738 q 743 620 782 652 q 672 548 699 583 q 652 498 652 522 q 663 458 652 481 q 685 412 675 434 q 781 261 696 390 q 845 110 845 164 q 819 46 845 74 q 732 0 793 18 l 717 44 "},"P":{"x_min":129,"x_max":1172,"ha":1032,"o":"m 417 792 l 402 808 l 417 869 q 473 902 426 880 q 537 930 507 919 q 743 1001 720 994 q 956 1037 864 1037 q 1121 974 1065 1037 q 1172 827 1172 919 q 1146 696 1172 763 q 1076 579 1120 629 q 868 440 1014 508 q 627 350 758 389 q 417 289 522 319 q 302 202 348 275 q 238 60 287 177 q 210 18 225 31 q 178 5 194 5 q 143 22 157 5 q 129 66 129 39 q 148 121 129 93 q 253 258 199 189 q 280 361 270 292 q 312 457 291 430 l 357 426 q 460 572 371 448 q 582 838 582 743 q 492 792 537 815 q 463 785 483 790 q 417 777 443 780 l 417 792 m 447 381 l 462 381 q 494 387 466 379 q 522 396 521 396 q 611 421 566 404 q 702 457 657 439 q 940 584 827 501 q 1093 805 1093 697 q 1061 899 1093 854 q 1005 940 1044 926 q 921 954 966 954 q 786 926 850 954 q 702 854 722 898 q 683 804 695 840 q 657 747 672 768 q 536 577 596 662 q 432 396 465 475 l 447 381 "},"%":{"x_min":118,"x_max":888,"ha":881,"o":"m 671 945 l 641 945 q 565 951 620 951 q 522 945 528 951 q 486 877 501 931 q 462 808 471 823 q 400 754 439 773 q 319 736 361 736 q 207 793 242 736 q 187 863 187 829 q 324 1057 187 964 q 552 1144 451 1144 q 639 1089 605 1144 q 718 1034 674 1034 q 746 1036 725 1034 q 790 1043 767 1039 q 831 1048 813 1048 q 873 1039 859 1048 q 888 1009 888 1031 q 866 945 888 985 q 787 829 838 894 q 641 640 648 651 q 531 488 599 576 q 415 339 424 349 q 312 181 350 250 q 280 122 290 141 q 254 65 267 95 q 229 25 241 34 q 199 17 218 17 q 157 22 185 17 q 118 29 130 28 q 195 206 118 111 q 327 364 260 285 q 463 542 364 418 q 602 730 555 655 q 686 929 671 841 l 671 945 m 387 991 q 313 930 343 964 q 267 854 282 896 q 349 832 312 832 q 439 931 439 832 q 417 1021 439 975 q 399 1002 407 1011 q 387 991 396 999 m 701 533 q 723 536 715 536 q 782 521 757 536 q 807 471 807 506 q 784 423 807 448 q 762 379 762 399 q 776 329 760 367 q 792 273 792 291 q 741 159 792 190 q 612 136 702 136 q 523 163 552 136 q 495 232 495 190 q 515 314 495 268 q 567 395 535 360 q 629 476 606 448 q 701 533 671 527 m 567 242 q 596 203 577 216 q 637 190 614 190 q 714 222 678 190 q 751 295 751 255 q 739 332 751 314 q 701 364 727 350 q 678 370 692 370 q 602 331 641 370 q 564 257 564 293 q 564 249 564 253 q 567 242 567 244 "},"#":{"x_min":124,"x_max":987.5625,"ha":988,"o":"m 613 837 l 643 837 q 682 835 656 835 q 702 837 694 835 q 773 928 732 850 q 822 1051 814 1007 q 829 1100 825 1076 q 852 1142 833 1123 q 888 1161 870 1161 q 922 1141 907 1161 q 941 1106 938 1122 q 944 1076 944 1090 q 912 963 944 1036 q 867 853 871 868 q 935 830 908 843 q 987 792 963 817 q 924 774 973 786 q 822 731 847 754 q 793 679 793 701 q 810 649 793 663 q 855 622 822 639 q 890 595 888 606 q 897 563 893 584 q 768 527 832 545 q 690 435 702 500 q 658 356 677 370 q 583 334 648 349 q 594 418 583 378 q 628 517 605 457 q 582 528 606 522 q 542 534 557 534 q 496 520 514 534 q 463 471 478 507 q 447 425 455 447 q 418 411 440 414 q 391 409 396 409 q 383 409 385 409 q 355 422 362 409 q 342 442 349 435 q 229 459 335 449 q 124 513 124 470 q 134 548 124 528 q 162 575 144 567 q 205 583 179 583 q 267 578 226 583 q 319 573 308 573 q 358 578 342 573 q 407 621 388 589 q 433 685 417 636 q 376 698 407 694 q 323 702 344 702 q 271 702 308 702 q 208 702 234 702 q 357 792 235 779 q 493 899 478 804 q 505 984 499 940 q 550 1023 516 1023 q 580 1019 561 1023 q 611 1001 599 1016 q 623 963 623 986 q 611 907 623 945 q 598 853 600 869 l 613 837 m 613 593 q 681 633 656 602 q 707 703 707 665 q 622 781 707 781 q 577 774 606 781 q 529 738 549 768 q 510 672 510 708 q 530 614 510 638 q 588 591 550 591 q 613 593 597 591 "},"_":{"x_min":4,"x_max":1115,"ha":1122,"o":"m 1016 105 q 1083 73 1051 105 q 1115 10 1115 42 q 1106 -14 1115 -1 q 1068 -43 1090 -43 q 1031 -44 1045 -43 l 1016 -60 q 940 -23 992 -60 q 872 -4 910 -3 q 790 -6 834 -6 q 664 -6 737 -6 q 462 -6 496 -6 q 294 -33 407 -6 q 125 -61 181 -61 q 100 -60 108 -60 l 88 -60 q 25 -37 46 -55 q 4 5 4 -19 q 31 56 4 33 q 99 79 58 79 q 133 74 114 79 q 340 53 224 53 q 539 65 420 53 q 867 90 805 90 q 948 97 891 90 q 1016 105 1004 105 "},"+":{"x_min":124,"x_max":1226.5,"ha":1227,"o":"m 553 45 q 548 82 548 61 q 560 147 548 113 q 583 217 572 182 q 600 273 595 251 q 613 341 613 318 q 584 395 613 380 q 516 410 555 410 q 366 381 468 410 q 226 353 264 353 q 171 362 193 353 q 133 396 149 371 q 124 428 124 411 q 150 480 124 457 q 208 503 177 503 q 231 496 222 503 q 276 472 264 474 q 299 470 287 470 q 329 470 309 470 q 358 470 350 470 q 421 470 388 470 q 487 470 453 470 q 599 489 561 470 q 658 579 651 515 q 664 746 658 687 q 742 856 677 856 q 762 854 755 856 q 810 793 810 844 q 786 692 810 760 q 762 615 763 625 q 761 599 761 605 q 761 591 761 594 q 792 529 761 547 q 867 516 816 516 q 936 516 887 516 q 986 516 985 516 q 1068 525 1018 516 q 1136 535 1118 535 q 1189 518 1166 535 q 1226 457 1211 501 q 1166 433 1182 439 q 1112 423 1138 423 q 1076 427 1097 423 q 967 438 1024 438 q 834 438 910 438 q 744 394 772 438 q 713 288 722 360 q 711 182 711 261 q 704 70 711 103 q 676 27 698 38 q 615 16 653 16 q 578 16 593 16 q 553 14 563 16 l 553 45 "},")":{"x_min":124,"x_max":550,"ha":553,"o":"m 148 13 q 157 52 144 30 q 207 105 171 73 q 408 329 364 249 q 453 498 453 409 q 453 537 453 517 q 447 563 448 555 q 380 801 428 678 q 267 1036 331 924 q 164 1179 201 1120 q 124 1279 124 1245 q 177 1327 124 1321 q 273 1215 221 1327 q 312 1128 292 1171 q 399 964 354 1049 q 462 807 443 880 q 514 659 466 789 q 550 501 550 560 q 537 426 550 463 q 378 173 492 297 q 148 -13 280 67 l 148 13 "},"'":{"x_min":177,"x_max":358,"ha":223,"o":"m 238 1128 q 264 1181 243 1161 q 307 1202 284 1202 q 343 1184 329 1202 q 358 1128 358 1167 q 333 1006 358 1084 q 298 884 303 910 q 262 816 287 828 q 178 808 246 808 q 177 832 177 816 q 201 978 177 885 q 238 1128 234 1103 "},"}":{"x_min":192.953125,"x_max":912,"ha":912,"o":"m 447 655 q 418 699 430 673 q 407 750 407 725 q 417 792 407 775 q 502 853 436 820 q 597 899 549 875 q 717 992 649 928 q 807 1112 799 1068 q 810 1135 810 1129 q 726 1219 810 1196 q 578 1235 672 1235 l 537 1235 q 417 1255 461 1235 q 373 1311 373 1275 q 387 1353 373 1340 q 428 1366 402 1366 q 460 1362 441 1366 q 492 1357 480 1359 q 745 1303 666 1331 q 912 1143 912 1246 q 844 983 912 1057 q 699 865 808 946 q 567 746 600 792 q 620 733 593 737 q 665 730 647 730 q 702 730 676 730 q 747 730 729 730 q 806 724 790 730 q 838 682 838 713 q 836 670 838 674 q 726 584 829 628 q 582 532 713 578 q 754 417 587 524 q 812 338 812 380 q 804 301 812 321 q 777 258 796 281 q 650 149 733 202 q 507 59 578 104 q 382 -32 445 13 q 239 -82 303 -82 q 192 -75 220 -82 q 311 56 218 -1 q 489 151 400 104 q 642 273 598 210 q 660 320 660 299 q 541 398 660 366 q 387 456 407 434 q 359 521 359 491 q 411 589 359 560 q 507 624 449 610 q 485 634 500 627 q 447 655 453 649 "},"a":{"x_min":44,"x_max":822.9375,"ha":793,"o":"m 793 533 q 771 407 793 473 q 717 287 750 340 q 681 229 683 233 q 653 137 653 182 q 657 90 653 118 q 714 4 668 22 q 822 -13 768 -3 q 785 -71 806 -52 q 741 -90 764 -90 q 622 -9 689 -90 q 538 121 569 54 q 374 45 406 57 q 169 -9 245 -9 q 79 18 110 -9 q 44 121 44 50 q 264 486 44 324 q 672 671 442 616 q 752 623 712 671 q 793 533 793 575 m 762 548 q 725 574 751 567 q 667 582 700 582 q 628 582 645 582 q 598 579 611 582 q 429 518 519 579 q 283 396 384 487 q 186 290 229 344 q 123 153 123 207 q 178 75 123 100 q 242 63 207 63 q 395 107 309 63 q 523 197 468 144 q 617 350 540 214 q 747 442 668 442 q 761 481 754 454 q 768 525 768 508 q 762 548 768 541 "},"T":{"x_min":114.125,"x_max":1679,"ha":1121,"o":"m 732 930 q 506 891 646 930 q 372 853 439 871 q 260 796 304 817 q 187 776 216 776 q 144 789 161 776 q 118 838 127 803 q 114 870 114 855 q 142 927 114 908 q 206 947 169 947 q 226 944 217 947 q 259 940 235 942 q 308 938 284 938 q 402 945 345 938 q 713 996 538 960 q 1020 1064 778 1010 q 1336 1129 1215 1108 q 1583 1174 1457 1150 q 1653 1162 1627 1174 q 1679 1128 1679 1151 q 1658 1082 1679 1110 q 1570 1022 1628 1043 q 1479 1006 1524 1006 q 1509 1067 1494 1036 q 1419 1077 1469 1077 q 1163 1038 1332 1077 q 1010 1004 1049 1011 q 969 998 971 998 q 925 975 946 992 q 904 900 904 959 q 898 823 904 841 q 768 537 861 692 q 605 272 687 403 q 477 -13 514 116 l 357 13 q 404 123 367 70 q 522 288 462 205 q 632 498 537 319 q 732 713 698 621 q 777 945 777 837 q 768 939 772 942 q 732 930 744 930 "},"—":{"x_min":59,"x_max":764,"ha":763,"o":"m 59 334 l 74 350 q 103 429 74 405 q 223 436 112 436 q 343 441 333 436 q 597 472 470 456 q 700 486 648 479 q 746 473 729 486 q 764 429 764 461 q 762 411 764 418 q 745 357 757 372 q 712 343 734 343 q 633 368 697 343 q 583 381 602 381 q 309 332 517 381 q 150 310 214 310 q 105 311 120 310 q 59 319 90 312 l 59 334 "},"=":{"x_min":114,"x_max":806.96875,"ha":807,"o":"m 118 319 q 114 347 114 334 q 141 405 114 384 q 207 426 168 426 q 245 417 223 426 q 315 395 300 397 q 346 393 331 393 q 372 393 361 393 q 477 398 414 393 q 642 411 617 411 q 714 405 698 411 q 747 350 752 393 q 722 312 742 322 q 669 303 702 303 q 647 303 658 303 q 627 296 636 303 q 350 296 529 296 q 118 296 172 296 l 118 319 m 792 564 l 792 549 l 777 549 q 754 536 763 537 q 721 532 745 535 q 666 529 698 529 q 591 529 635 529 q 442 529 520 529 q 312 529 364 529 q 271 529 286 529 q 232 533 248 529 q 207 549 217 537 q 194 582 194 564 q 210 624 194 601 q 237 655 217 634 q 277 670 253 670 q 346 651 294 670 q 387 640 372 641 q 443 640 414 640 q 503 640 473 640 q 704 625 642 640 q 806 579 767 610 l 792 564 "},"N":{"x_min":118,"x_max":1388,"ha":1151,"o":"m 822 319 q 896 456 858 387 q 971 616 923 530 q 1062 773 990 652 q 1150 930 1125 878 q 1239 1074 1197 1024 q 1374 1159 1302 1150 q 1382 1127 1377 1146 q 1388 1099 1388 1107 q 1345 1052 1388 1080 q 1243 958 1292 1017 q 1165 838 1194 899 q 1100 710 1118 748 q 1061 601 1069 646 q 1030 535 1054 555 q 1001 502 1006 515 q 918 327 948 391 q 863 136 863 208 q 822 25 863 51 q 702 -13 808 15 q 646 245 673 115 q 567 502 612 390 q 440 358 508 449 q 237 90 252 106 q 203 68 228 80 q 161 57 179 57 q 128 67 139 57 q 118 105 118 77 q 141 147 118 125 q 177 181 158 163 q 417 517 304 344 q 489 688 442 555 q 537 792 512 752 q 660 645 613 749 q 721 445 679 601 q 792 258 755 317 l 822 319 m 986 487 l 986 472 l 1001 456 l 1016 472 l 1016 487 l 1001 502 l 986 487 "},"2":{"x_min":116,"x_max":839,"ha":838,"o":"m 373 28 q 315 11 343 24 q 222 -30 231 -27 q 197 -33 212 -33 q 143 -20 163 -33 q 116 26 116 -3 q 120 49 116 30 q 169 85 125 69 q 244 106 178 88 q 428 192 309 123 q 541 259 482 224 q 667 363 600 294 q 748 502 748 448 q 718 581 748 558 q 639 604 688 604 q 605 601 622 604 q 568 594 587 599 q 441 533 494 557 q 357 510 387 510 q 320 548 320 510 q 330 599 320 565 q 419 658 341 633 q 538 686 433 662 q 598 698 565 693 q 660 703 632 703 q 759 681 716 703 q 822 609 802 659 q 839 526 839 568 q 724 301 839 413 q 508 151 636 215 q 611 77 583 103 q 673 -28 663 30 q 512 18 566 4 q 418 33 458 33 q 373 28 396 33 "},"j":{"x_min":-502,"x_max":559,"ha":552,"o":"m 388 472 l 403 456 l 403 441 q 410 413 410 427 q 389 337 410 387 q 358 258 360 266 q 302 80 332 167 q 193 -212 279 12 q 69 -409 158 -307 q -103 -563 -13 -505 q -159 -590 -131 -581 q -214 -600 -186 -600 q -334 -556 -277 -600 q -432 -441 -391 -513 q -478 -345 -461 -390 q -502 -239 -502 -286 q -493 -183 -502 -208 q -460 -134 -484 -158 q -404 -110 -436 -110 q -357 -151 -371 -110 q -355 -165 -355 -162 q -367 -190 -355 -179 q -387 -212 -385 -207 q -398 -248 -394 -226 q -403 -289 -403 -269 q -348 -446 -403 -375 q -216 -518 -293 -518 q -148 -502 -179 -518 q 114 -250 11 -430 q 258 113 186 -125 q 373 472 349 413 l 388 472 m 373 868 q 380 900 370 882 q 403 930 390 919 q 472 958 436 958 q 507 945 492 958 q 559 871 559 898 q 537 845 559 853 q 484 837 515 837 q 423 841 449 837 q 373 853 398 846 l 373 868 "},"Z":{"x_min":118,"x_max":1397,"ha":1345,"o":"m 567 1007 q 595 1016 582 1016 q 620 1009 597 1016 q 642 1007 629 1007 q 785 1021 712 1007 q 926 1052 857 1036 q 1130 1094 1049 1079 q 1267 1109 1212 1109 q 1363 1091 1330 1109 q 1397 1032 1397 1074 q 1360 930 1397 991 q 1265 826 1333 884 q 1150 731 1208 778 l 866 487 q 695 365 809 439 q 516 244 561 280 q 372 90 421 169 q 419 85 398 85 q 474 85 440 85 q 567 85 497 85 q 672 85 636 85 q 860 101 764 101 q 1076 101 956 101 l 1117 101 q 1230 91 1182 101 q 1278 49 1278 81 q 1256 1 1278 29 q 1209 -26 1235 -26 q 1159 -10 1190 -26 q 1106 14 1115 11 q 1050 27 1083 24 q 992 31 1017 31 q 943 31 975 31 q 896 31 910 31 q 587 10 759 31 q 402 -13 523 3 q 251 -66 326 -39 q 222 -59 235 -66 q 158 -28 190 -43 q 118 22 118 -5 q 147 75 118 46 q 193 101 160 87 q 237 121 226 114 q 296 164 269 142 q 387 243 341 203 q 761 518 574 380 q 1037 732 917 623 q 1271 991 1178 859 q 1214 1008 1245 1002 q 1152 1014 1182 1014 q 904 960 1071 1014 q 662 907 737 907 q 589 916 621 907 q 522 945 556 925 q 540 972 530 958 q 567 1007 561 1004 "},"u":{"x_min":28.859375,"x_max":1106,"ha":1092,"o":"m 178 75 l 208 75 q 244 71 225 71 q 351 95 287 71 q 448 136 399 115 q 706 277 594 187 q 897 502 827 373 q 964 619 945 591 q 1062 685 1017 694 q 1096 670 1086 681 q 1106 641 1106 659 q 1084 576 1106 616 q 1047 517 1070 551 q 940 388 1020 478 q 792 151 819 251 q 784 105 784 122 q 812 63 784 71 q 848 61 823 61 q 883 61 871 61 q 934 53 920 61 q 957 29 949 46 q 886 11 940 26 q 800 -4 831 -4 q 762 0 782 -4 q 709 30 725 8 q 689 126 689 58 l 689 172 q 687 197 689 188 q 534 102 580 129 q 366 23 440 50 q 189 -10 272 -10 q 103 0 143 -10 q 46 26 64 8 q 28 70 28 44 q 80 184 28 113 q 161 288 121 236 q 259 405 201 340 q 433 594 272 420 q 490 642 463 626 q 535 658 516 658 q 567 626 567 658 q 524 535 567 590 q 395 392 482 481 q 264 254 297 294 q 163 90 197 172 l 178 75 "},"1":{"x_min":118,"x_max":267.890625,"ha":268,"o":"m 148 288 l 148 426 q 155 526 148 462 q 162 609 162 590 q 152 637 162 619 q 148 670 142 655 q 171 692 152 678 q 192 716 190 706 q 224 713 195 723 q 252 701 233 710 q 256 678 255 692 q 257 624 257 664 q 257 363 257 562 q 257 206 257 263 q 267 0 257 93 q 227 -9 239 -6 q 167 -18 191 -18 q 118 -13 146 -18 q 138 173 118 29 q 148 288 148 241 "},"k":{"x_min":28.671875,"x_max":941,"ha":808,"o":"m 29 44 q 71 161 24 84 q 134 273 128 254 q 153 340 135 277 q 193 426 170 403 q 291 545 252 478 q 358 685 322 598 q 507 960 433 822 q 551 1056 518 989 q 597 1159 584 1124 q 622 1209 610 1194 q 650 1224 635 1224 q 686 1205 668 1224 q 704 1167 704 1187 q 687 1118 704 1146 q 657 1067 671 1090 q 540 870 622 996 q 419 668 453 734 q 343 456 359 553 q 569 546 424 476 q 703 609 661 592 q 842 717 744 627 q 927 777 890 761 q 941 720 941 749 q 744 513 941 613 q 447 395 669 476 q 386 363 404 378 q 369 326 369 348 q 375 286 369 310 q 388 242 382 262 q 447 75 418 158 q 520 -74 449 70 q 546 -159 546 -127 q 527 -215 546 -191 q 462 -258 509 -238 q 428 -163 453 -215 q 358 -13 360 -20 q 298 136 328 61 q 268 202 282 184 q 208 242 249 226 q 191 204 202 224 q 178 166 181 183 l 164 90 l 164 59 q 104 19 149 29 q 29 14 76 14 l 29 44 "},"<":{"x_min":118,"x_max":1031,"ha":1106,"o":"m 118 395 q 143 441 118 418 q 192 472 169 464 q 218 473 203 475 q 235 471 233 471 q 256 473 246 471 q 286 495 266 476 q 312 518 305 514 q 488 627 394 564 q 654 746 541 663 q 821 869 767 829 q 898 948 841 883 q 971 1006 945 1002 q 1016 999 1002 1012 q 1031 961 1031 985 q 1022 919 1031 940 q 1001 884 1014 898 q 804 716 919 801 q 588 570 736 666 q 372 426 440 475 q 444 387 408 399 q 522 365 462 381 q 574 346 552 356 q 657 303 615 324 q 740 266 718 278 q 807 212 792 238 q 819 176 816 195 q 822 129 822 158 q 822 102 822 115 q 822 75 822 88 q 699 124 755 75 q 522 273 538 267 q 459 295 466 292 q 344 319 387 319 l 327 319 q 262 295 300 319 q 222 273 233 277 q 216 307 218 295 q 192 334 213 319 q 160 351 182 342 q 118 365 138 359 l 118 395 "},"t":{"x_min":27,"x_max":751,"ha":747,"o":"m 731 1006 q 751 956 751 987 q 680 802 751 899 q 626 731 652 766 q 696 686 660 709 q 748 597 748 649 q 746 579 748 586 q 669 601 715 586 q 601 617 624 617 q 557 607 580 617 q 507 579 534 598 q 360 438 443 533 q 237 273 277 344 q 203 211 220 242 q 186 156 186 180 q 201 114 186 134 q 252 74 217 94 q 504 18 364 18 q 612 29 557 18 q 613 22 612 24 q 626 0 629 11 l 552 -28 q 492 -37 522 -34 q 429 -40 463 -40 q 328 -33 380 -40 q 214 -12 276 -26 q 112 41 152 1 q 72 138 72 80 q 88 212 72 172 q 186 361 115 280 q 387 594 379 582 q 361 596 373 596 q 331 596 349 596 q 274 592 296 596 q 222 579 252 589 q 160 551 179 559 q 101 536 124 536 q 58 548 81 536 q 27 594 27 567 q 58 640 27 620 q 95 651 76 648 q 147 655 115 655 q 183 655 162 655 q 230 655 205 655 l 252 655 q 386 675 342 664 q 508 732 467 695 q 587 832 549 770 q 686 1037 602 857 q 690 1037 688 1037 q 731 1006 715 1023 "},"W":{"x_min":117,"x_max":1704,"ha":1659,"o":"m 1435 1051 q 1437 1083 1432 1065 q 1449 1113 1441 1100 q 1494 1148 1464 1135 q 1554 1162 1523 1162 q 1614 1143 1591 1162 q 1683 1051 1663 1106 q 1704 923 1704 996 q 1683 763 1704 852 q 1644 624 1672 714 q 1441 309 1591 452 q 1122 105 1303 176 q 1036 75 1056 80 q 942 60 986 60 q 830 133 871 60 q 777 273 816 157 q 648 189 720 245 q 527 87 587 137 q 404 1 457 30 q 311 -43 351 -28 q 209 -66 254 -66 q 163 -59 187 -66 q 117 -7 117 -43 q 140 55 117 15 q 178 121 159 87 q 291 297 217 200 q 420 465 355 380 q 538 640 499 569 q 577 714 557 676 q 627 778 607 764 q 664 792 646 792 q 704 770 688 792 q 720 721 720 748 q 720 708 720 714 q 718 701 718 702 q 633 570 704 650 q 521 438 539 465 q 413 301 503 412 q 283 44 283 140 q 420 105 348 64 q 552 194 474 136 q 672 289 593 225 q 764 388 721 329 q 882 563 823 476 q 932 602 912 602 q 958 577 949 602 q 967 515 967 551 q 964 478 967 497 q 958 446 961 459 q 920 350 954 433 q 893 244 893 284 q 927 166 893 195 q 987 146 951 146 q 1096 183 1029 146 q 1196 243 1146 212 q 1503 506 1381 340 q 1635 885 1635 688 q 1635 931 1635 908 q 1628 968 1630 952 q 1613 1019 1626 984 q 1583 1067 1599 1054 q 1550 1081 1566 1081 q 1492 1056 1527 1081 q 1435 1021 1448 1025 l 1435 1051 "},"v":{"x_min":24,"x_max":762,"ha":612,"o":"m 762 762 q 688 595 762 681 q 530 452 647 548 q 387 319 424 365 q 301 115 376 305 q 164 -14 251 -14 q 101 18 118 -14 q 85 109 85 51 q 85 190 85 141 q 85 245 85 240 q 87 273 85 265 q 41 429 59 366 q 24 531 24 491 q 45 595 24 573 q 86 618 66 618 q 138 570 115 618 q 164 459 157 530 q 179 322 172 388 q 207 197 187 255 q 375 388 249 240 q 477 502 433 458 q 732 762 603 631 l 762 762 "},">":{"x_min":252,"x_max":1197,"ha":1197,"o":"m 867 823 q 1068 751 993 770 q 1197 732 1142 732 q 1172 598 1197 647 q 1062 502 1141 537 q 948 440 1008 480 q 777 304 914 416 q 653 216 748 280 q 513 116 557 153 q 403 0 441 58 q 346 -33 381 -33 q 283 -13 317 -33 q 258 12 265 -3 q 252 51 252 29 q 252 77 252 64 q 253 105 252 90 q 482 198 359 118 q 695 372 572 257 q 882 548 788 459 q 932 600 918 583 q 957 652 957 630 q 927 701 957 680 q 797 772 887 730 q 717 808 740 798 q 532 906 577 872 q 477 992 477 951 q 491 1037 477 1015 q 538 1083 505 1059 q 867 823 702 952 "},"s":{"x_min":42.15625,"x_max":986.34375,"ha":971,"o":"m 986 762 q 919 671 975 700 q 717 625 906 664 q 573 585 627 607 q 447 503 498 554 q 700 431 609 461 q 872 284 872 374 q 851 213 872 253 q 627 32 797 114 q 342 -44 468 -44 q 135 47 228 -44 q 42 249 42 138 q 43 274 42 265 q 170 142 95 256 q 313 30 239 36 q 534 79 404 30 q 732 197 665 129 q 769 268 769 235 q 688 354 769 317 q 553 395 634 379 q 391 424 472 410 q 253 503 304 445 q 353 579 292 547 q 567 656 413 610 q 941 778 748 710 q 986 762 961 765 "},"B":{"x_min":137,"x_max":1016,"ha":986,"o":"m 371 808 l 371 838 q 412 914 371 877 q 491 960 453 951 q 647 1001 565 980 q 791 1022 728 1022 q 942 1003 897 1022 q 1016 884 1016 974 q 841 630 1016 761 q 686 518 763 573 q 763 494 709 508 q 895 457 867 468 q 984 332 984 422 q 940 228 984 276 q 704 75 857 139 q 432 0 570 19 q 360 -9 398 -3 q 294 -15 322 -15 q 208 0 245 -15 q 154 35 171 15 q 137 81 137 56 q 147 136 137 103 q 237 84 191 110 q 332 59 284 59 q 356 60 348 59 q 555 110 451 71 q 746 197 638 140 q 827 254 789 221 q 881 329 881 300 q 815 399 881 369 q 725 425 766 419 q 656 431 684 431 q 444 353 525 431 q 326 136 367 281 q 286 144 313 139 q 237 152 260 149 q 333 412 237 249 q 416 564 399 523 q 478 673 430 594 q 553 863 553 796 q 551 884 553 877 q 470 839 524 874 q 386 792 416 803 l 371 808 m 566 564 q 626 586 594 566 q 686 625 657 605 q 818 723 746 656 q 910 866 910 808 q 866 929 910 906 q 788 948 830 948 q 703 932 750 948 q 626 899 676 924 q 641 831 641 867 q 570 651 641 792 q 537 533 537 583 l 566 564 "},"?":{"x_min":252.703125,"x_max":901,"ha":897,"o":"m 776 915 q 748 934 767 928 q 704 940 730 940 q 569 916 652 940 q 461 884 515 899 q 406 869 437 877 q 356 861 376 861 q 318 892 318 861 q 327 930 318 909 q 440 985 342 965 q 581 1006 483 995 q 778 1029 680 1017 q 832 1024 812 1029 q 866 1006 853 1019 q 901 923 901 973 q 891 867 901 898 q 866 808 881 836 q 669 613 817 713 q 431 457 550 534 q 384 366 400 432 q 312 289 368 301 q 292 356 300 325 q 284 409 284 387 q 309 480 284 450 q 402 548 335 511 q 553 637 512 611 q 696 751 641 695 q 791 899 764 820 l 776 915 m 267 75 q 301 110 277 96 q 351 124 326 124 q 392 112 374 124 q 415 81 410 100 q 421 53 421 62 q 397 16 421 26 q 335 6 373 6 q 294 8 312 6 q 252 14 277 10 q 255 32 254 22 q 267 75 262 61 "},"H":{"x_min":121,"x_max":1538.84375,"ha":1316,"o":"m 627 411 q 662 394 642 394 q 701 405 676 394 q 737 417 726 417 q 873 417 749 417 q 1046 452 997 417 q 1174 652 1106 496 q 1225 777 1199 715 q 1345 1006 1285 891 q 1378 1087 1360 1048 q 1404 1144 1397 1127 q 1434 1181 1417 1172 q 1480 1190 1451 1190 q 1510 1190 1496 1190 q 1538 1190 1525 1190 q 1458 1030 1510 1117 q 1367 878 1412 953 q 1285 716 1314 787 q 1235 630 1277 695 q 1197 540 1204 581 q 1184 487 1190 498 q 1150 441 1179 475 q 1125 414 1137 428 q 1091 365 1104 390 q 866 -13 978 175 q 832 -73 865 -16 q 806 -135 814 -103 q 773 -198 794 -184 q 707 -211 752 -211 l 657 -211 q 696 -96 657 -159 q 761 0 729 -48 q 903 218 788 50 q 986 350 957 298 q 885 360 942 360 q 729 346 813 360 q 569 321 644 332 q 342 94 495 310 q 198 -1 274 -1 q 178 0 184 -1 q 239 128 184 60 q 349 246 265 161 q 447 365 423 321 q 252 472 338 412 q 121 640 121 563 q 133 685 121 662 q 174 715 150 715 q 267 644 209 715 q 342 548 304 595 q 394 487 375 508 q 462 441 429 448 q 553 486 506 432 q 597 548 571 505 q 761 792 678 670 q 817 891 788 841 q 896 960 850 941 q 905 928 901 948 q 910 895 910 908 q 846 735 910 823 q 714 580 835 720 q 612 426 632 486 l 627 411 "},"c":{"x_min":29,"x_max":1006,"ha":1002,"o":"m 807 533 q 768 438 788 472 q 700 390 738 390 q 673 395 685 390 q 631 442 631 413 q 671 511 631 465 q 718 579 711 558 q 664 585 694 585 q 481 537 590 585 q 373 487 407 502 q 209 373 282 445 q 120 198 120 283 q 133 136 120 165 q 242 39 163 69 q 408 14 308 14 q 505 18 468 14 q 673 44 542 22 q 766 53 696 53 q 848 57 836 53 q 895 78 860 61 q 943 95 930 95 q 957 90 950 95 l 972 106 q 1001 106 992 106 q 1006 103 1006 106 q 989 91 1006 100 q 931 61 973 82 q 897 44 908 50 q 613 -28 758 -12 q 509 -40 572 -40 q 395 -40 445 -40 q 146 1 234 -40 q 29 185 29 56 q 132 406 29 302 q 343 549 211 484 q 555 645 463 607 q 777 716 674 693 q 822 680 809 698 q 835 637 835 661 q 824 585 835 615 q 807 533 814 555 "},"¶":{"x_min":87.1875,"x_max":702,"ha":702,"o":"m 358 609 q 182 654 269 631 q 87 790 87 690 q 88 820 87 809 q 205 964 100 922 q 433 997 286 997 q 561 997 498 997 q 702 997 625 997 l 702 915 q 679 915 689 915 q 661 916 669 915 q 643 915 651 916 l 643 -105 l 568 -105 l 568 915 l 463 915 l 463 -105 l 388 -105 l 388 609 l 358 609 "},"&":{"x_min":124,"x_max":1047.140625,"ha":1047,"o":"m 972 14 l 957 14 q 923 2 943 8 q 886 -4 902 -4 q 867 0 875 -4 q 836 44 852 8 q 807 90 821 81 q 762 105 788 105 q 688 83 728 105 q 612 44 648 62 q 490 -5 531 8 q 355 -33 411 -33 q 276 -18 313 -33 q 208 29 239 -3 q 145 132 166 76 q 124 250 124 188 q 198 498 124 373 q 373 685 268 615 q 430 713 419 706 q 448 777 448 724 q 627 1037 448 966 q 713 1054 672 1054 q 769 1043 746 1054 q 807 1007 792 1033 q 828 929 828 966 q 802 838 828 883 q 687 716 770 783 q 640 677 663 697 q 602 609 602 642 q 612 564 602 593 q 702 427 638 500 q 807 304 792 326 q 905 379 883 365 q 1015 414 961 414 l 1047 411 q 989 294 1040 346 q 882 213 957 261 q 906 170 897 182 q 942 136 915 159 q 972 95 964 120 q 987 29 973 90 l 972 14 m 597 762 q 618 758 608 758 q 700 812 663 758 q 738 922 738 866 q 721 972 738 953 q 672 992 705 992 q 584 941 630 992 q 539 838 539 890 q 552 792 539 812 q 597 762 566 773 m 448 564 l 433 564 l 418 548 q 325 480 371 532 q 269 388 279 429 q 260 315 260 347 q 311 163 260 225 q 446 102 362 102 q 492 106 468 102 q 603 150 560 120 q 655 239 655 188 q 642 289 655 261 q 529 469 621 337 q 462 579 484 534 l 448 564 "},"I":{"x_min":118,"x_max":1301.296875,"ha":1107,"o":"m 1301 929 q 1158 905 1241 905 q 986 905 1075 905 q 919 893 937 905 q 897 844 901 881 q 891 784 894 807 q 867 716 888 762 l 567 90 q 681 78 624 78 q 798 87 732 78 q 926 105 864 96 q 1016 131 981 121 q 1072 142 1052 142 q 1109 130 1095 142 q 1123 90 1123 118 q 1121 75 1123 80 q 1085 23 1116 36 q 1004 11 1054 11 q 940 11 982 11 q 883 11 898 11 l 867 11 q 683 -11 777 1 q 491 -42 590 -25 q 298 -75 391 -58 q 180 -100 239 -87 q 134 -84 150 -100 q 118 -29 118 -69 q 199 47 118 26 q 328 60 248 60 q 484 139 416 60 q 581 300 529 191 q 685 521 632 409 q 762 731 737 634 q 778 792 773 771 q 784 827 784 813 q 773 850 784 842 q 740 859 763 859 q 722 859 728 859 q 677 852 715 859 q 600 827 639 845 q 522 792 562 810 q 481 779 498 782 q 442 776 465 776 q 409 776 427 776 q 373 776 392 776 q 375 855 373 843 q 447 912 386 905 q 566 929 507 920 q 657 945 624 939 q 1196 1006 926 975 q 1260 989 1203 1002 q 1301 929 1289 984 "},"G":{"x_min":117,"x_max":1434.296875,"ha":1301,"o":"m 881 29 l 851 29 q 826 27 842 32 q 791 14 810 21 q 639 3 722 3 q 477 3 556 3 q 247 46 343 3 q 117 232 117 107 q 118 258 117 249 q 247 532 133 393 q 477 732 346 653 q 896 991 687 861 q 1091 1086 1011 1050 q 1328 1157 1246 1157 q 1401 1136 1374 1157 q 1434 1068 1428 1115 q 831 858 1086 986 q 312 472 532 708 q 243 368 270 426 q 216 257 216 310 q 239 170 216 208 q 312 105 262 132 q 420 67 363 79 q 542 56 478 56 q 672 65 604 56 q 881 106 698 69 q 1039 231 970 124 q 1109 440 1109 339 q 1109 457 1109 448 q 1107 472 1107 468 q 939 411 1007 435 q 832 388 871 388 q 779 403 797 388 q 762 457 762 418 q 791 514 762 501 q 877 528 820 528 l 919 528 q 962 528 940 528 q 986 533 980 532 q 1291 611 1138 572 q 1315 609 1307 611 q 1251 412 1305 518 q 1138 229 1228 367 q 1031 45 1065 115 q 999 -61 1010 -27 q 928 -124 978 -124 q 896 -120 913 -124 q 849 -78 849 -109 q 864 -35 849 -60 q 896 14 880 -9 l 881 29 "},"(":{"x_min":4,"x_max":597.203125,"ha":687,"o":"m 402 14 l 387 14 l 372 29 q 339 25 356 26 q 309 29 329 25 q 258 48 289 34 q 207 75 228 62 q 56 256 108 138 q 4 505 4 374 q 13 609 4 562 q 118 848 36 723 q 282 1052 178 938 q 354 1125 330 1102 q 432 1189 395 1165 q 474 1217 452 1203 q 525 1238 507 1238 q 597 1189 553 1238 q 278 925 405 1065 q 73 563 122 752 q 65 495 65 527 q 120 323 65 413 q 237 167 142 287 l 252 167 q 278 140 255 155 q 312 121 305 125 q 338 97 324 108 q 372 75 371 76 l 387 75 q 405 49 394 66 q 417 29 416 31 l 402 14 "},"`":{"x_min":-46,"x_max":164,"ha":538,"o":"m 164 685 q 24 761 94 694 q -46 893 -46 828 q -28 948 -46 924 q 29 991 -11 973 q 132 857 95 953 q 164 685 164 775 "},"·":{"x_min":252,"x_max":404,"ha":672,"o":"m 402 456 q 377 411 395 426 q 334 397 359 397 q 277 418 302 397 q 252 473 252 440 q 268 518 252 494 q 326 550 290 550 q 380 528 356 550 q 404 474 404 506 q 402 456 404 463 "},"U":{"x_min":118,"x_max":1437,"ha":1271,"o":"m 762 930 q 744 880 766 902 q 702 838 722 857 q 654 780 678 809 q 567 670 598 712 q 297 349 432 509 q 255 280 291 338 q 208 151 208 204 q 230 91 208 108 q 293 75 252 75 q 354 80 326 75 q 402 90 382 86 q 676 219 544 119 q 895 440 781 298 q 1076 685 963 524 q 1228 935 1169 848 q 1434 1098 1339 1098 q 1437 1068 1437 1078 q 1359 905 1437 998 q 1241 746 1257 782 q 1160 623 1212 685 q 1058 503 1107 560 q 969 378 1001 434 q 905 263 937 322 q 867 136 867 190 l 867 119 q 982 15 867 36 q 1076 -14 1056 2 q 1018 -29 1038 -23 q 916 -49 950 -49 q 837 -29 873 -49 q 788 33 801 -10 q 776 137 776 77 q 776 175 776 156 q 776 212 776 194 q 590 112 721 188 q 267 0 397 0 q 164 12 191 0 q 118 105 118 33 q 156 240 118 167 q 297 441 172 270 q 466 628 329 483 q 567 746 527 694 q 628 842 571 752 q 762 960 695 948 l 762 930 "},"F":{"x_min":117.28125,"x_max":1674,"ha":1002,"o":"m 118 0 q 132 69 113 20 q 162 136 143 97 q 342 472 252 304 q 406 590 346 480 q 451 712 451 671 q 431 761 451 743 q 402 779 411 772 q 383 812 383 792 q 387 837 383 822 q 422 875 397 867 q 476 883 456 881 q 618 931 532 893 q 761 990 735 982 q 938 1056 835 1014 q 1118 1124 1052 1101 q 1291 1172 1225 1161 q 1422 1194 1358 1184 q 1539 1205 1487 1205 q 1598 1199 1584 1200 q 1633 1187 1612 1198 q 1664 1165 1654 1177 q 1674 1138 1674 1153 q 1669 1111 1674 1125 q 1659 1082 1664 1097 q 1571 1125 1618 1113 q 1471 1138 1525 1138 q 1223 1087 1373 1138 q 986 1006 1104 1046 q 896 969 945 993 q 746 899 762 904 q 659 842 686 878 q 611 746 640 818 q 562 665 596 708 q 506 594 534 629 q 564 586 535 586 q 645 596 600 586 q 791 624 760 624 l 840 624 q 952 616 914 624 q 1016 579 991 609 q 728 516 871 547 q 447 426 569 479 q 326 276 374 395 q 248 73 286 175 q 118 -29 198 -29 l 118 0 "},"­":{"x_min":178,"x_max":883,"ha":882,"o":"m 178 334 l 193 350 q 222 429 193 405 q 342 436 231 436 q 462 441 454 436 q 716 472 589 456 q 819 486 767 479 q 865 473 848 486 q 883 429 883 461 q 881 411 883 418 q 864 357 876 372 q 831 343 853 343 q 752 368 816 343 q 701 381 721 381 q 428 332 636 381 q 269 310 333 310 q 224 311 239 310 q 178 319 209 312 l 178 334 "},"r":{"x_min":13.609375,"x_max":702.328125,"ha":702,"o":"m 328 656 q 345 545 336 600 q 406 502 357 502 q 443 504 423 502 q 496 507 464 507 q 626 477 575 507 q 702 365 688 441 q 453 446 577 405 q 396 435 421 446 q 343 396 371 425 q 257 278 289 341 q 208 136 225 215 q 147 1 186 42 q 13 -44 100 -44 q 96 136 21 26 q 193 319 176 255 q 213 482 198 343 q 298 656 227 621 l 328 656 "},":":{"x_min":222,"x_max":465,"ha":447,"o":"m 283 258 q 236 272 250 258 q 222 312 222 287 q 268 395 222 368 q 309 409 289 409 q 352 388 336 409 q 368 336 368 367 q 346 280 368 303 q 283 258 325 258 m 313 655 l 298 670 l 313 685 l 313 701 q 347 753 322 731 q 399 775 372 775 q 446 747 428 775 q 465 699 465 719 q 425 655 465 670 q 313 640 386 640 l 313 655 "},"ý":{"x_min":0,"x_max":0,"ha":0},"x":{"x_min":29,"x_max":912,"ha":912,"o":"m 29 44 q 57 89 29 64 q 104 121 79 108 q 192 162 143 143 q 283 197 196 164 q 345 221 314 208 q 402 258 383 237 q 422 307 422 279 q 347 436 422 357 q 283 503 314 469 q 222 554 267 519 q 145 647 145 614 q 164 686 145 667 q 203 706 184 706 q 242 684 221 706 q 283 640 263 662 q 370 549 335 590 q 448 442 415 496 q 497 372 482 389 q 547 349 518 349 q 615 367 572 349 q 719 430 658 385 q 882 549 864 540 l 897 549 q 912 518 912 537 q 903 486 912 503 q 882 457 894 469 q 797 394 854 426 q 704 350 753 369 q 635 302 655 330 q 616 235 616 274 q 654 86 616 190 q 692 -68 692 -17 q 687 -105 692 -88 q 583 85 671 -86 q 448 206 520 206 q 403 197 427 206 q 274 129 348 178 q 149 44 211 86 q 109 19 120 26 q 87 13 98 13 q 29 29 74 13 l 29 44 "},"*":{"x_min":118,"x_max":1256,"ha":1271,"o":"m 702 854 q 755 967 718 878 q 882 1113 809 1096 q 868 1025 882 1068 q 834 896 834 917 q 836 869 834 888 q 960 974 882 898 q 1181 1098 1087 1098 q 1053 935 1171 1018 q 866 808 959 872 q 885 807 876 807 q 906 807 895 807 q 1121 838 949 807 q 1256 854 1202 854 q 1253 807 1256 820 q 1241 762 1246 784 q 1136 775 1188 775 q 955 742 1050 775 q 777 670 925 733 q 876 480 777 669 q 916 371 916 405 q 911 350 916 358 q 886 317 902 329 q 853 306 871 306 q 792 350 811 306 q 744 465 759 427 q 687 579 715 531 q 563 391 605 512 q 493 182 527 286 q 464 192 476 189 q 433 196 452 196 q 457 319 433 250 q 510 512 510 470 q 509 531 510 520 q 508 548 508 543 q 392 477 449 512 q 298 382 323 430 q 244 305 273 333 q 182 278 216 278 q 118 304 149 278 q 300 472 183 379 q 418 563 359 518 q 396 566 412 565 q 349 568 381 568 l 313 568 q 182 577 220 568 q 118 640 118 594 q 128 678 118 666 q 156 690 138 690 q 203 680 176 690 q 282 655 273 655 q 429 671 353 655 q 582 716 506 688 q 449 812 571 729 q 358 914 358 874 q 372 969 358 952 q 411 987 386 987 q 467 970 435 987 q 522 930 498 953 q 594 863 568 885 q 672 808 635 829 q 679 820 674 812 q 702 854 684 827 "},"V":{"x_min":132,"x_max":1331.359375,"ha":942,"o":"m 358 243 q 389 269 367 244 q 418 304 403 286 q 603 538 506 394 q 762 792 634 585 q 868 951 815 878 q 987 1098 921 1023 q 1121 1250 1053 1174 q 1185 1300 1151 1288 q 1266 1312 1219 1312 q 1297 1312 1281 1312 q 1331 1312 1313 1312 q 866 815 1079 1082 q 477 243 653 548 q 373 44 424 143 q 337 6 358 19 q 296 -7 316 -7 q 240 18 265 -7 q 211 77 216 43 q 207 140 207 111 q 207 197 207 169 q 207 348 207 251 q 207 473 207 445 q 202 567 207 519 q 187 685 198 616 q 162 823 176 755 q 144 884 157 845 q 132 937 132 923 q 147 974 132 959 q 208 1006 163 989 q 252 708 252 910 q 266 485 252 506 q 343 243 286 337 l 358 243 "}," ":{"x_min":0,"x_max":0,"ha":0},"h":{"x_min":28.90625,"x_max":1029,"ha":1017,"o":"m 763 1006 q 741 940 763 978 q 702 868 720 902 q 493 441 597 654 q 777 563 634 502 q 882 607 844 592 q 943 623 920 623 q 986 609 967 623 q 1016 561 1004 596 q 1029 491 1029 527 q 982 329 1029 421 q 890 153 935 237 q 840 -3 840 55 q 867 -90 840 -50 q 827 -111 846 -101 q 777 -121 808 -121 q 719 -62 719 -121 q 759 78 719 -14 q 792 151 776 114 q 845 263 804 180 q 904 457 904 381 q 897 517 904 482 q 449 337 672 491 q 133 -29 218 176 q 84 -11 109 -19 q 28 0 60 -3 q 113 135 42 58 q 178 212 166 194 q 403 502 290 356 q 491 650 461 596 q 567 807 536 731 q 623 947 595 877 q 702 1067 659 1028 q 741 1049 706 1061 q 763 1006 763 1040 "},"0":{"x_min":131,"x_max":1062,"ha":1062,"o":"m 732 732 q 949 666 853 732 q 1062 472 1062 590 q 973 132 1062 302 q 732 -120 876 -55 q 563 -192 625 -170 q 373 -233 452 -233 q 272 -213 317 -233 q 194 -151 227 -194 q 145 -62 160 -109 q 131 34 131 -15 q 269 379 131 189 q 522 640 379 529 q 638 711 586 690 q 732 732 690 732 m 268 151 q 259 72 259 111 q 307 -59 259 -15 q 438 -104 355 -104 q 582 -74 505 -104 q 815 126 698 -30 q 939 427 939 293 q 903 543 939 498 q 777 609 864 593 q 728 614 752 614 q 437 459 579 614 q 268 151 305 316 "},".":{"x_min":241,"x_max":433.359375,"ha":433,"o":"m 418 44 q 383 24 407 24 q 343 14 359 24 q 313 -5 333 10 q 286 -22 294 -22 q 270 -14 277 -22 q 251 19 262 -6 q 241 65 241 46 q 264 110 241 97 q 329 124 288 124 q 381 119 352 124 q 433 105 410 114 q 432 96 432 100 q 418 44 423 53 "},"”":{"x_min":376.640625,"x_max":763,"ha":717,"o":"m 492 1036 q 463 1022 479 1032 q 448 1017 454 1017 q 417 1051 439 1017 q 389 1116 402 1076 q 376 1187 376 1155 q 387 1235 376 1217 q 420 1254 398 1254 q 499 1203 458 1254 q 541 1102 541 1152 q 529 1063 541 1080 q 492 1036 517 1046 m 671 1082 q 638 1156 654 1094 q 623 1263 623 1218 q 627 1295 623 1284 q 677 1339 644 1339 q 730 1311 704 1339 q 761 1250 756 1283 q 763 1233 763 1241 q 763 1218 763 1225 q 752 1143 763 1183 q 731 1067 741 1103 q 727 1067 729 1067 q 671 1082 685 1072 "},"@":{"x_min":125,"x_max":1374.609375,"ha":1375,"o":"m 1361 181 l 1361 166 l 1346 151 q 1307 127 1339 143 q 1256 105 1275 112 q 1076 44 1166 75 q 888 -10 1027 32 q 567 -75 682 -75 q 301 -27 407 -75 q 133 166 164 33 q 125 234 125 202 q 167 410 125 319 q 269 573 199 481 q 387 716 305 621 q 644 900 489 832 q 963 969 800 969 q 1181 930 1080 969 q 1301 827 1256 900 q 1346 670 1346 753 q 1245 466 1346 559 q 1046 349 1164 391 q 918 317 1006 335 q 793 289 831 299 q 739 278 756 280 q 694 276 722 276 q 595 299 630 276 q 552 395 552 328 q 677 589 552 495 q 896 685 791 676 q 920 687 904 687 q 1027 631 999 687 q 1046 502 1046 592 l 1046 456 q 1196 548 1141 478 q 1251 702 1251 619 q 1205 827 1251 776 q 1061 899 1155 885 q 975 905 1023 905 q 594 785 778 905 q 312 488 419 672 q 253 277 253 386 q 327 78 253 158 q 534 -1 401 -1 l 581 -1 q 981 74 769 20 q 1374 197 1164 122 l 1361 181 m 686 532 q 634 481 652 512 q 616 421 616 450 q 637 365 616 387 q 694 344 658 344 q 731 349 713 344 q 790 389 767 362 q 877 455 837 449 q 937 486 916 462 q 959 538 959 510 q 939 587 959 566 q 885 609 919 609 q 779 582 840 609 q 686 532 731 562 "},"f":{"x_min":27,"x_max":1175,"ha":851,"o":"m 282 380 l 252 380 q 169 352 229 385 q 115 334 135 334 l 101 334 q 46 348 66 334 q 27 387 27 363 q 33 414 27 401 q 58 441 40 427 q 115 465 82 459 q 191 472 149 472 l 232 472 q 296 474 277 472 q 342 487 315 476 q 421 566 384 505 q 477 670 448 617 q 569 813 539 771 q 684 950 626 893 q 820 1050 752 1017 q 968 1084 888 1084 q 1090 1058 1037 1084 q 1165 975 1142 1032 q 1175 921 1175 950 q 1140 810 1175 864 q 1061 731 1105 756 q 1079 805 1063 755 q 1095 880 1095 855 q 1087 921 1095 902 q 1060 960 1080 941 q 1017 988 1041 979 q 964 998 993 998 q 911 991 938 998 q 851 975 884 985 q 646 787 726 934 q 522 533 583 659 q 654 492 647 495 q 717 395 717 462 q 621 412 687 395 q 526 429 556 429 q 473 418 496 429 q 432 380 451 407 q 368 260 402 338 q 312 135 339 197 q 228 23 273 57 q 103 -29 183 -11 q 105 25 103 2 q 116 68 108 48 q 139 113 124 89 q 164 154 160 143 q 183 185 169 166 q 222 242 202 213 q 297 364 259 303 l 282 380 "},";":{"x_min":117.734375,"x_max":619,"ha":627,"o":"m 118 -380 q 141 -351 115 -370 q 162 -335 152 -342 q 198 -306 173 -327 q 252 -258 213 -294 q 412 -119 331 -188 q 502 59 502 -27 q 500 89 502 79 q 494 115 499 99 q 462 169 489 130 q 452 197 452 184 q 462 227 452 211 q 513 261 484 261 q 574 224 544 261 q 611 152 604 187 q 619 88 619 116 q 442 -219 619 -69 q 118 -395 292 -345 l 118 -380 m 432 700 q 484 738 458 738 q 530 697 510 738 q 552 624 546 664 q 432 609 491 609 q 428 636 429 621 q 427 668 427 650 q 432 700 427 693 "},"“":{"x_min":-71,"x_max":328,"ha":717,"o":"m 163 1235 q 92 1074 156 1173 q -28 975 21 963 q -71 1019 -71 986 q 10 1147 -71 1062 q 118 1250 63 1198 q 140 1239 126 1244 q 163 1235 153 1235 m 88 975 q 190 1122 108 1039 q 328 1219 272 1205 q 306 1117 328 1162 q 208 975 304 1112 q 170 932 186 944 q 133 920 153 920 q 111 922 123 920 q 73 929 99 924 l 88 975 "},"i":{"x_min":35,"x_max":435,"ha":417,"o":"m 357 1022 l 387 961 q 406 941 396 951 q 432 911 430 922 q 435 897 435 901 q 411 854 435 869 q 357 839 388 839 q 304 854 320 839 q 288 897 288 870 q 304 976 288 926 q 327 1052 326 1040 q 331 1050 328 1051 q 357 1022 351 1031 m 267 502 q 285 458 285 484 q 268 392 285 430 q 237 319 252 354 q 208 243 229 289 q 177 166 182 183 q 136 80 152 96 q 42 60 113 60 q 40 89 40 86 q 35 125 35 122 q 41 162 35 139 q 71 218 48 184 q 102 273 94 251 q 152 415 127 344 q 237 533 184 490 l 267 502 "},"6":{"x_min":118,"x_max":898,"ha":897,"o":"m 627 731 q 672 712 657 731 q 687 667 687 694 q 672 608 687 636 q 493 421 642 554 q 387 303 418 355 q 237 89 312 196 q 231 45 231 66 q 276 -70 231 -18 q 386 -123 322 -123 q 418 -120 397 -123 q 452 -97 440 -117 q 461 -47 461 -84 q 462 0 461 -17 q 527 141 470 71 q 657 242 584 210 q 718 263 687 255 q 779 272 749 272 q 860 247 829 272 q 896 166 891 223 q 898 137 898 156 q 801 -67 898 13 q 582 -167 719 -135 q 491 -183 545 -175 q 392 -192 437 -192 q 279 -179 329 -192 q 192 -135 230 -167 q 135 -63 153 -104 q 118 27 118 -22 q 157 182 118 101 q 252 319 196 263 q 397 470 335 399 q 522 639 469 553 q 563 699 550 685 q 627 731 593 731 m 597 -75 q 672 -55 629 -79 q 747 0 714 -31 q 790 55 770 21 q 810 117 810 89 q 799 149 810 137 q 762 166 788 162 q 627 100 706 176 q 548 -29 548 25 q 559 -61 548 -49 q 597 -75 571 -72 "},"A":{"x_min":118.109375,"x_max":1285.75,"ha":1151,"o":"m 178 319 q 183 361 173 333 q 192 380 187 373 q 222 404 207 398 q 255 411 236 411 l 282 411 q 410 541 354 411 q 522 671 466 671 q 559 665 544 671 q 584 653 571 658 q 626 686 594 653 q 746 812 674 734 q 855 930 800 870 q 971 1052 926 1007 q 1093 1186 1032 1119 q 1242 1257 1168 1257 q 1285 1251 1265 1257 q 1206 980 1263 1122 q 1088 723 1171 894 q 971 472 999 543 q 912 319 927 366 q 881 151 881 222 q 911 64 881 104 q 1001 -59 999 -55 q 968 -62 979 -62 q 851 -15 901 -62 q 791 105 802 30 q 790 129 790 112 q 798 195 790 159 q 820 307 820 291 q 800 362 820 342 q 731 382 780 382 q 671 382 703 382 q 609 382 640 382 q 517 377 554 382 q 447 350 479 372 q 338 230 390 313 q 267 90 307 180 q 211 23 244 37 q 118 14 188 14 q 202 180 126 80 q 267 273 252 247 q 178 304 222 288 l 178 319 m 1106 1098 q 992 1002 1063 1076 q 896 900 943 951 q 764 766 829 833 q 635 626 685 684 q 522 472 569 550 q 603 451 555 465 q 753 424 705 424 q 838 443 806 424 q 896 518 878 467 q 991 714 920 587 q 1099 918 1071 857 q 1151 1129 1151 1036 l 1106 1098 m 537 639 q 511 618 511 639 q 516 594 511 608 q 522 579 522 580 q 547 602 534 590 q 555 616 555 609 q 552 655 552 633 l 537 639 m 492 579 l 492 564 l 506 548 l 522 564 l 522 579 l 506 594 l 492 579 "},"‘":{"x_min":-43,"x_max":194.125,"ha":598,"o":"m 193 1311 q 162 1229 198 1272 q 103 1158 106 1164 q 82 1104 89 1131 q 75 1039 75 1078 l 75 983 q 74 958 74 967 l 74 945 q -15 971 11 945 q -43 1044 -43 997 q 20 1229 -43 1121 q 133 1372 77 1325 q 166 1353 134 1371 q 193 1311 190 1339 "},"n":{"x_min":28.8125,"x_max":852,"ha":822,"o":"m 44 13 l 29 28 q 35 60 27 34 q 44 89 42 85 q 87 164 56 123 q 178 288 177 287 q 298 456 238 371 q 329 537 317 509 q 372 591 352 588 q 396 595 391 595 q 402 595 401 595 q 435 583 425 595 q 445 549 445 571 q 431 486 445 524 q 402 410 417 448 q 552 489 412 414 q 718 547 657 547 q 787 526 756 547 q 837 456 818 505 q 847 420 843 442 q 852 382 852 398 q 788 207 852 316 q 732 105 743 131 l 702 74 q 707 44 699 59 q 716 27 716 30 q 702 0 716 14 q 651 -22 681 -22 q 605 -7 626 -22 q 582 28 585 6 q 639 163 575 81 q 732 288 725 271 q 746 349 746 320 q 722 408 746 386 q 661 430 698 430 q 627 425 646 430 q 416 298 524 400 q 242 114 329 206 q 44 0 139 16 l 44 13 "},"O":{"x_min":133,"x_max":1270,"ha":1301,"o":"m 1211 884 q 1253 709 1211 880 q 1270 600 1270 643 q 1256 518 1270 555 q 1035 162 1178 309 q 672 -14 865 -14 l 583 -14 q 380 -1 457 -14 q 206 66 265 17 q 133 242 133 129 q 229 548 133 395 q 447 793 308 673 q 584 904 531 865 q 672 961 627 936 q 851 1113 761 1037 q 944 1137 893 1137 q 1119 1057 1039 1137 q 1211 884 1198 978 m 507 686 q 333 523 414 627 q 238 312 238 402 l 238 302 q 334 155 238 218 q 507 90 408 108 q 576 85 538 85 q 848 174 718 85 q 1046 396 978 264 q 1107 587 1089 483 q 1121 793 1121 670 q 1113 861 1121 838 q 1089 900 1106 883 q 1059 920 1073 916 q 1020 925 1046 925 q 998 925 1009 925 q 971 930 987 925 q 904 940 938 940 q 699 845 813 940 q 507 686 602 765 "},"3":{"x_min":129.390625,"x_max":719,"ha":718,"o":"m 313 685 q 449 669 393 678 q 582 639 505 660 q 670 595 630 628 q 717 517 710 563 q 719 500 719 511 q 667 399 719 450 q 582 319 625 359 q 665 241 638 284 q 692 152 692 198 q 627 18 692 76 q 463 -40 562 -40 q 445 -46 454 -46 q 430 -46 435 -46 q 339 -38 396 -46 q 242 -27 283 -31 q 165 1 201 -23 q 129 55 129 26 q 208 120 129 98 q 258 59 217 78 q 359 40 299 40 q 447 49 404 40 q 522 74 490 59 q 584 148 584 106 q 540 213 584 184 q 448 243 496 243 q 418 240 435 243 q 381 237 401 237 q 349 241 359 237 q 328 258 339 246 q 308 304 308 280 q 322 340 308 324 q 358 364 336 356 q 496 413 454 396 q 612 502 571 442 q 527 552 569 539 q 435 566 486 566 q 354 566 408 566 q 283 566 299 566 q 222 577 240 566 q 204 610 204 589 q 231 662 204 635 q 298 700 258 689 l 313 685 "},"]":{"x_min":206,"x_max":1053,"ha":1048,"o":"m 927 1021 q 987 1000 970 1021 q 1005 939 1005 979 q 988 838 1005 906 q 972 746 972 770 q 961 579 972 691 q 951 413 951 468 q 958 306 951 352 q 987 211 965 260 q 1026 154 990 204 q 1053 90 1053 119 q 1047 59 1053 74 q 1016 15 1033 23 q 957 8 999 8 q 658 8 726 8 q 493 -14 590 8 q 433 -23 463 -23 q 388 -12 406 -23 q 371 22 371 -2 q 374 44 371 27 q 418 113 377 61 q 478 166 459 166 q 516 148 493 167 q 553 120 546 123 q 601 107 580 110 q 651 104 622 104 q 684 104 667 104 q 720 104 701 104 l 732 104 q 832 120 811 104 q 854 188 854 137 q 854 225 854 197 q 854 272 854 253 l 854 532 l 854 822 q 837 889 854 872 q 784 906 820 906 q 726 898 765 906 q 673 891 686 891 l 403 891 q 358 891 379 891 q 320 891 338 891 q 236 897 266 891 q 206 925 206 903 q 213 949 206 937 q 238 977 221 960 q 269 994 251 989 q 308 999 287 999 q 369 992 334 999 q 478 976 456 976 q 656 986 553 976 q 852 1006 758 996 q 889 1014 867 1007 q 927 1021 911 1021 "},"m":{"x_min":28.375,"x_max":1323,"ha":1316,"o":"m 28 29 q 77 121 25 62 q 118 166 97 143 q 172 231 149 207 q 268 334 220 283 q 299 391 277 345 q 373 471 333 462 q 412 476 386 476 q 466 487 438 476 q 534 521 494 499 q 609 562 574 543 q 669 581 645 581 q 756 501 725 581 q 792 365 769 471 q 1031 497 807 372 q 1181 564 1117 544 q 1226 576 1205 571 q 1260 581 1247 581 q 1301 564 1288 581 q 1323 497 1323 536 q 1318 454 1323 473 q 1301 395 1313 435 q 1106 59 1202 227 q 1102 26 1102 43 q 1104 -13 1102 4 q 1111 -55 1106 -30 q 1106 -74 1111 -66 q 1066 -108 1091 -108 q 1024 -83 1045 -108 q 1001 -31 1004 -59 q 999 5 999 -3 q 1049 168 999 79 q 1144 317 1096 243 q 1196 471 1196 406 q 1027 402 1116 448 q 762 243 1007 392 q 665 168 722 219 q 507 85 573 85 q 487 85 496 85 q 462 90 471 89 q 552 212 469 151 q 627 288 603 250 q 659 376 659 340 q 652 415 659 395 q 627 471 645 434 q 452 359 533 426 q 298 212 379 301 q 181 68 239 140 q 28 0 117 0 l 28 29 "},"9":{"x_min":125,"x_max":755,"ha":747,"o":"m 672 731 q 734 669 714 707 q 755 583 755 631 q 736 470 755 530 q 657 289 717 409 q 562 156 645 265 q 493 18 499 76 q 471 -91 487 -38 q 432 -197 455 -144 q 406 -231 421 -220 q 370 -241 390 -241 q 327 -235 356 -241 q 283 -227 299 -230 q 312 -119 283 -173 q 372 -13 342 -65 q 425 97 394 30 q 477 211 451 154 q 421 211 464 211 q 352 211 378 211 q 168 242 220 211 q 125 321 125 268 q 148 411 125 360 q 340 637 209 538 q 597 761 464 730 q 630 750 613 756 q 672 731 664 735 m 268 289 q 337 271 291 271 q 440 292 387 271 q 522 350 492 313 q 548 388 538 369 q 567 426 558 406 q 617 485 598 462 q 643 535 635 508 q 652 585 652 562 q 634 629 652 614 q 589 644 617 644 q 531 634 563 644 q 462 609 499 624 q 321 508 394 578 q 233 356 233 423 q 268 289 233 315 "},"l":{"x_min":35,"x_max":661,"ha":537,"o":"m 656 1052 q 661 1028 661 1039 q 649 986 661 1009 q 626 945 637 964 q 545 805 603 891 q 462 670 480 709 q 378 505 424 589 q 289 340 333 421 q 207 166 237 238 q 172 61 190 113 q 103 0 146 0 q 50 10 66 0 q 35 40 35 20 q 60 109 35 65 q 103 181 81 145 q 202 355 142 259 q 309 526 255 440 q 402 701 369 626 q 443 791 420 741 q 507 945 489 893 q 535 1042 520 993 q 597 1113 553 1088 q 629 1091 605 1120 q 656 1052 654 1061 "},"8":{"x_min":128,"x_max":867,"ha":867,"o":"m 178 639 q 317 716 231 696 q 484 732 379 732 q 541 732 513 732 q 597 732 568 732 q 714 709 662 732 q 792 625 781 682 q 794 602 794 608 q 769 558 794 569 q 703 547 744 547 q 680 547 691 547 q 657 548 668 547 q 602 634 652 605 q 480 663 552 663 q 362 644 420 663 q 267 594 304 626 q 230 534 230 561 q 255 491 230 511 q 357 442 273 478 q 459 365 391 426 q 560 314 515 314 q 603 320 579 314 q 735 383 627 327 q 867 427 819 427 q 797 350 843 385 q 702 289 790 344 q 642 242 660 261 q 625 205 625 223 q 635 164 625 193 q 658 102 645 136 q 680 32 671 69 q 689 -42 689 -5 q 669 -126 689 -92 q 597 -181 646 -166 q 406 -212 504 -212 q 309 -201 353 -212 q 226 -167 264 -191 q 170 -119 187 -144 q 154 -67 154 -95 q 278 112 154 4 q 447 258 363 184 q 304 343 436 266 q 128 534 128 446 q 178 639 128 584 m 282 -13 q 268 -63 268 -38 q 302 -117 268 -98 q 387 -136 336 -136 q 489 -124 435 -136 q 567 -90 544 -113 q 596 -23 596 -62 q 563 77 596 18 q 507 166 559 84 q 385 93 438 133 q 282 -13 315 40 "},"p":{"x_min":-253.046875,"x_max":888,"ha":883,"o":"m 208 410 l 208 425 q 200 456 200 442 q 253 527 200 495 q 343 563 294 552 q 508 610 444 592 q 706 645 633 645 q 821 619 776 645 q 882 532 867 593 q 888 489 888 512 q 811 328 888 410 q 674 213 779 294 q 427 73 570 133 q 163 -13 305 22 q 22 -130 75 -37 q -53 -308 20 -131 q -162 -456 -100 -416 q -207 -472 -186 -472 q -252 -426 -244 -472 q -211 -340 -256 -401 q -147 -258 -179 -298 q -40 -126 -134 -237 q 44 13 27 -45 q 87 77 56 55 q 148 135 131 109 q 226 245 159 152 q 313 441 313 366 q 270 416 283 423 q 224 395 244 401 l 208 410 m 268 90 q 391 134 319 99 q 508 196 422 149 q 660 321 573 233 q 747 410 704 366 q 777 449 766 430 q 794 495 794 475 q 783 525 794 512 q 747 548 773 538 q 668 562 710 562 q 514 513 589 562 q 403 395 440 464 q 321 277 381 353 q 224 74 224 151 q 233 79 228 76 q 268 90 259 88 "},"4":{"x_min":127,"x_max":850,"ha":853,"o":"m 673 242 q 714 377 708 355 q 733 517 733 450 l 733 550 q 739 667 733 624 q 781 739 752 739 q 822 715 799 739 q 843 678 836 701 q 850 629 850 654 q 829 507 850 583 q 777 319 803 413 q 738 158 768 249 q 688 0 693 18 q 662 -142 674 -71 q 568 -228 640 -215 q 588 -86 568 -185 q 598 0 598 -40 q 600 18 600 9 q 600 32 600 28 q 586 78 600 61 q 538 105 573 95 q 416 134 490 118 q 313 151 342 151 q 252 137 300 151 q 212 130 229 130 q 178 135 195 130 q 127 188 127 157 q 176 259 127 213 q 223 303 218 298 q 373 486 309 388 q 421 560 396 522 q 485 613 459 613 q 523 563 510 613 q 525 550 525 558 q 498 494 525 522 q 448 441 471 466 q 360 330 379 356 q 313 257 349 314 q 436 206 390 224 q 575 172 523 172 q 673 242 651 172 "},"R":{"x_min":118,"x_max":1461,"ha":1181,"o":"m 118 212 l 133 227 q 145 249 135 237 q 163 273 161 272 q 224 355 201 324 q 268 441 268 414 l 238 472 q 253 526 238 506 q 297 563 268 547 q 416 666 364 601 q 477 813 477 742 q 472 849 477 830 q 467 875 467 869 q 492 914 467 894 q 545 958 517 935 q 596 1006 572 981 q 627 1031 620 1031 q 646 1024 636 1027 q 671 1022 655 1022 l 692 1022 q 859 1064 752 1022 q 1027 1127 998 1120 q 1138 1158 1057 1133 q 1325 1195 1258 1195 q 1350 1195 1340 1195 q 1394 1188 1361 1195 q 1444 1158 1427 1181 q 1461 1103 1461 1135 q 1448 1039 1461 1074 q 1418 975 1436 1004 q 1277 840 1380 908 q 1105 746 1218 802 q 908 660 1032 710 q 706 581 852 636 q 507 502 586 535 q 646 337 586 422 q 746 151 712 244 q 786 44 765 101 q 808 -48 808 -12 q 786 -116 808 -92 q 702 -151 760 -145 q 659 92 702 -27 q 537 304 617 212 q 449 393 479 372 q 390 414 418 414 q 312 365 349 414 q 266 270 295 341 q 238 212 250 231 q 186 175 213 175 q 156 181 173 175 q 118 197 119 197 l 118 212 m 492 609 l 507 609 q 531 608 511 608 q 550 608 542 608 q 567 609 558 608 q 655 631 605 614 q 806 685 730 657 q 1031 789 911 718 q 1240 930 1115 839 q 1324 1052 1324 992 q 1249 1109 1324 1109 q 1181 1097 1221 1109 q 910 1007 1001 1045 q 641 859 743 940 q 477 624 515 757 l 492 609 "},"×":{"x_min":0,"x_max":0,"ha":0},"o":{"x_min":53.9375,"x_max":993.109375,"ha":986,"o":"m 971 395 q 993 297 993 342 q 776 65 993 149 q 432 0 609 0 q 233 16 303 0 q 73 120 120 43 q 58 152 63 137 q 53 187 53 167 q 109 306 53 245 q 222 395 153 353 q 353 473 330 460 q 486 531 435 517 q 580 551 537 545 q 671 558 622 558 q 847 524 776 558 q 971 395 933 484 m 177 151 q 255 102 198 127 q 339 76 304 81 q 407 70 375 70 q 490 74 460 70 q 656 105 520 79 q 812 174 735 122 q 906 308 906 238 q 897 351 906 330 q 866 395 888 371 q 786 443 836 428 q 678 458 737 458 q 552 441 613 458 q 327 346 433 410 q 147 181 205 273 l 177 151 "},"5":{"x_min":118,"x_max":896.953125,"ha":897,"o":"m 836 747 l 851 731 q 880 714 865 727 q 896 685 895 701 q 808 581 903 630 q 732 548 794 574 q 517 478 581 503 q 357 334 406 435 q 570 322 387 322 q 806 196 753 322 q 823 121 823 156 q 713 -52 823 22 q 507 -121 612 -121 q 346 -100 431 -121 q 252 -75 299 -87 q 176 -58 214 -66 q 118 29 118 -39 q 330 -16 173 29 q 458 -39 406 -39 q 496 -37 483 -39 q 537 -29 510 -36 q 660 33 604 -11 q 724 135 724 84 q 708 183 724 159 q 657 227 692 206 q 609 248 631 242 q 560 254 587 254 q 487 245 530 254 q 356 226 386 226 q 327 227 337 226 q 246 251 270 235 q 223 294 223 267 q 243 359 223 314 q 267 410 259 392 q 323 513 307 495 q 417 548 355 548 q 644 593 542 548 q 821 747 760 645 l 836 747 "}}}
